<?xml version="1.0" standalone="no"?><!-- Generator: Gravit.io --><svg xmlns="http://www.w3.org/2000/svg" xmlns:xlink="http://www.w3.org/1999/xlink" style="isolation:isolate" viewBox="35 975.59 150 147.41" width="150" height="147.41"><g><path d=" M 112.235 1091.52 L 112.235 1091.52 L 112.241 1091.525 L 112.241 1091.525 L 112.241 1091.525 L 112.241 1091.525 L 134.078 1069.688 L 143.959 1079.568 L 143.959 1079.568 L 144.087 1079.696 L 144.093 1079.691 C 146.162 1081.572 148.572 1083.042 151.193 1084.019 C 153.785 1084.983 156.536 1085.45 159.302 1085.399 C 162.072 1085.349 164.808 1084.776 167.367 1083.712 C 169.635 1082.67 173.024 1080.549 175.147 1078.132 C 177.3 1075.682 179.184 1072.994 180.745 1070.145 C 182.392 1067.055 183.501 1063.744 184.075 1060.303 C 184.686 1056.621 185 1052.903 185 1049.165 C 184.981 1040.433 183.317 1031.794 180.079 1023.672 C 176.897 1015.662 172.346 1008.261 166.648 1001.805 C 160.913 995.274 154.105 989.743 146.538 985.451 C 138.786 981.066 130.313 978.051 121.507 976.589 C 117.53 975.923 113.497 975.59 109.463 975.59 C 100.768 975.609 92.147 977.126 83.97 980.086 C 75.923 982.99 68.411 987.227 61.77 992.629 C 55.11 998.012 49.43 1004.524 45.009 1011.85 C 40.476 1019.417 37.387 1027.742 35.944 1036.437 C 35.315 1040.23 35 1044.059 35 1047.889 C 35.019 1056.695 36.647 1065.409 39.773 1073.641 C 42.863 1081.781 47.303 1089.348 52.89 1096.027 C 58.495 1102.724 65.211 1108.422 72.722 1112.88 C 80.4 1117.431 88.854 1120.539 97.642 1122.019 C 101.619 1122.667 105.634 1123 109.649 1123 C 125.725 1123 141.358 1117.635 154.068 1107.793 C 154.956 1107.108 155.548 1106.091 155.696 1104.981 C 155.825 1103.852 155.529 1102.724 154.826 1101.836 C 154.142 1100.948 153.124 1100.356 152.014 1100.208 C 150.886 1100.078 149.757 1100.374 148.869 1101.077 C 137.639 1109.754 123.838 1114.49 109.649 1114.49 C 106.096 1114.49 102.544 1114.194 99.048 1113.62 C 91.296 1112.307 83.841 1109.587 77.07 1105.573 C 70.372 1101.595 64.415 1096.526 59.42 1090.551 C 54.425 1084.612 50.485 1077.878 47.728 1070.626 C 44.953 1063.355 43.529 1055.659 43.51 1047.889 C 43.51 1044.522 43.788 1041.155 44.343 1037.843 C 45.619 1030.203 48.32 1022.877 52.298 1016.254 C 56.22 1009.76 61.233 1004.006 67.116 999.233 C 73.036 994.442 79.697 990.668 86.856 988.078 C 94.108 985.451 101.749 984.1 109.463 984.1 C 113.034 984.1 116.605 984.396 120.12 984.97 C 127.927 986.283 135.456 988.947 142.338 992.869 C 149.091 996.68 155.141 1001.601 160.265 1007.429 C 165.316 1013.164 169.349 1019.713 172.179 1026.817 C 175.01 1033.94 176.471 1041.525 176.49 1049.165 C 176.49 1052.44 176.212 1055.696 175.676 1058.915 C 175.269 1061.413 174.455 1063.855 173.271 1066.093 C 172.07 1068.266 170.76 1070.406 169.054 1072.199 C 168.01 1073.295 165.885 1075.076 164.046 1075.742 C 162.491 1076.389 160.827 1076.737 159.141 1076.768 C 157.459 1076.799 155.784 1076.514 154.205 1075.929 C 152.619 1075.337 151.161 1074.447 149.909 1073.31 L 140.182 1063.583 L 149.689 1054.076 L 149.689 1054.076 C 151.707 1052.031 153.301 1049.607 154.381 1046.946 C 155.442 1044.324 155.986 1041.526 155.985 1038.7 C 155.986 1035.874 155.442 1033.073 154.382 1030.453 C 153.28 1027.739 151.644 1025.273 149.571 1023.203 C 147.5 1021.13 145.034 1019.494 142.319 1018.39 C 139.699 1017.331 136.899 1016.786 134.073 1016.787 C 131.247 1016.787 128.448 1017.331 125.827 1018.392 C 123.166 1019.472 120.743 1021.067 118.696 1023.084 L 118.696 1023.083 L 118.583 1023.196 L 118.583 1023.196 L 115.704 1026.075 L 115.711 1026.082 L 115.711 1026.082 L 115.711 1026.082 L 115.711 1026.082 L 115.711 1026.082 L 115.711 1026.082 L 115.711 1026.082 L 115.711 1026.082 C 114.92 1026.85 114.474 1027.873 114.474 1029.083 L 114.474 1029.083 C 114.474 1031.465 116.408 1033.399 118.79 1033.399 C 119.961 1033.399 121.024 1032.932 121.802 1032.173 L 121.808 1032.179 L 124.683 1029.305 L 124.683 1029.305 C 124.684 1029.303 124.685 1029.302 124.686 1029.301 C 124.69 1029.297 124.694 1029.294 124.698 1029.29 C 125.947 1028.042 127.435 1027.057 129.071 1026.392 C 130.66 1025.75 132.358 1025.419 134.074 1025.42 C 135.788 1025.42 137.486 1025.748 139.077 1026.392 C 140.719 1027.059 142.213 1028.051 143.467 1029.307 C 144.722 1030.56 145.713 1032.054 146.382 1033.697 C 147.024 1035.287 147.354 1036.986 147.353 1038.699 C 147.354 1040.414 147.024 1042.114 146.381 1043.702 C 145.714 1045.345 144.723 1046.837 143.468 1048.089 L 143.468 1048.09 L 134.078 1057.479 L 99.892 1023.293 C 99.878 1023.279 99.865 1023.265 99.851 1023.252 C 99.814 1023.215 99.777 1023.178 99.74 1023.141 L 99.604 1023.005 L 99.602 1023.006 C 97.583 1021.048 95.204 1019.496 92.597 1018.437 C 89.977 1017.377 87.177 1016.833 84.35 1016.834 C 81.524 1016.833 78.726 1017.377 76.106 1018.437 C 73.391 1019.54 70.925 1021.176 68.854 1023.249 C 66.781 1025.32 65.146 1027.786 64.043 1030.5 C 62.983 1033.12 62.438 1035.919 62.439 1038.745 C 62.438 1041.571 62.983 1044.371 64.043 1046.991 C 65.102 1049.599 66.653 1051.978 68.613 1053.996 L 68.611 1053.998 L 68.733 1054.119 C 68.774 1054.161 68.816 1054.203 68.858 1054.245 L 68.859 1054.244 L 106.039 1091.254 L 106.042 1091.251 C 106.833 1092.136 107.983 1092.695 109.263 1092.695 C 110.388 1092.695 111.198 1092.417 112.235 1091.52 Z  M 109.274 1082.283 L 127.974 1063.583 L 93.654 1029.263 C 92.42 1028.05 90.958 1027.09 89.355 1026.438 C 87.764 1025.795 86.067 1025.465 84.352 1025.466 C 82.636 1025.465 80.938 1025.796 79.349 1026.438 C 77.704 1027.106 76.212 1028.097 74.959 1029.353 C 73.704 1030.606 72.711 1032.099 72.043 1033.743 C 71.401 1035.333 71.07 1037.031 71.073 1038.745 C 71.071 1040.46 71.4 1042.159 72.044 1043.748 C 72.693 1045.348 73.65 1046.804 74.858 1048.036 L 74.858 1048.036 L 74.858 1048.036 L 74.858 1048.036 L 74.858 1048.036 L 74.858 1048.036 L 109.274 1082.283 Q 108.839 1082.223 109.274 1082.283 Z " fill-rule="evenodd" fill="rgb(244,84,124)"/></g></svg>