<?xml version="1.0" standalone="no"?><!-- Generator: Gravit.io --><svg xmlns="http://www.w3.org/2000/svg" xmlns:xlink="http://www.w3.org/1999/xlink" style="isolation:isolate" viewBox="35 805 150 147.41" width="150" height="147.41"><g><path d=" M 112.235 920.93 L 112.235 920.93 L 112.241 920.935 L 112.241 920.935 L 112.241 920.935 L 112.241 920.935 L 134.078 899.098 L 143.959 908.978 L 143.959 908.978 L 144.087 909.106 L 144.093 909.101 C 146.162 910.982 148.572 912.452 151.193 913.429 C 153.785 914.393 156.536 914.86 159.302 914.809 C 162.072 914.759 164.808 914.186 167.367 913.122 C 169.635 912.08 173.024 909.959 175.147 907.542 C 177.3 905.092 179.184 902.404 180.745 899.555 C 182.392 896.465 183.501 893.154 184.075 889.713 C 184.686 886.031 185 882.313 185 878.575 C 184.981 869.843 183.317 861.204 180.079 853.082 C 176.897 845.072 172.346 837.671 166.648 831.215 C 160.913 824.684 154.105 819.153 146.538 814.861 C 138.786 810.476 130.313 807.461 121.507 805.999 C 117.53 805.333 113.497 805 109.463 805 C 100.768 805.019 92.147 806.536 83.97 809.496 C 75.923 812.4 68.411 816.637 61.77 822.039 C 55.11 827.422 49.43 833.934 45.009 841.26 C 40.476 848.827 37.387 857.152 35.944 865.847 C 35.315 869.64 35 873.469 35 877.299 C 35.019 886.105 36.647 894.819 39.773 903.051 C 42.863 911.191 47.303 918.758 52.89 925.437 C 58.495 932.134 65.211 937.832 72.722 942.29 C 80.4 946.841 88.854 949.949 97.642 951.429 C 101.619 952.077 105.634 952.41 109.649 952.41 C 125.725 952.41 141.358 947.045 154.068 937.203 C 154.956 936.518 155.548 935.501 155.696 934.391 C 155.825 933.262 155.529 932.134 154.826 931.246 C 154.142 930.358 153.124 929.766 152.014 929.618 C 150.886 929.488 149.757 929.784 148.869 930.487 C 137.639 939.164 123.838 943.9 109.649 943.9 C 106.096 943.9 102.544 943.604 99.048 943.03 C 91.296 941.717 83.841 938.997 77.07 934.983 C 70.372 931.005 64.415 925.936 59.42 919.961 C 54.425 914.022 50.485 907.288 47.728 900.036 C 44.953 892.765 43.529 885.069 43.51 877.299 C 43.51 873.932 43.788 870.565 44.343 867.253 C 45.619 859.613 48.32 852.287 52.298 845.664 C 56.22 839.17 61.233 833.416 67.116 828.643 C 73.036 823.852 79.697 820.078 86.856 817.488 C 94.108 814.861 101.749 813.51 109.463 813.51 C 113.034 813.51 116.605 813.806 120.12 814.38 C 127.927 815.693 135.456 818.357 142.338 822.279 C 149.091 826.09 155.141 831.011 160.265 836.839 C 165.316 842.574 169.349 849.123 172.179 856.227 C 175.01 863.35 176.471 870.935 176.49 878.575 C 176.49 881.85 176.212 885.106 175.676 888.325 C 175.269 890.823 174.455 893.265 173.271 895.503 C 172.07 897.676 170.76 899.816 169.054 901.609 C 168.01 902.705 165.885 904.486 164.046 905.152 C 162.491 905.799 160.827 906.147 159.141 906.178 C 157.459 906.209 155.784 905.924 154.205 905.339 C 152.619 904.747 151.161 903.857 149.909 902.72 L 140.182 892.993 L 149.689 883.486 L 149.689 883.486 C 151.707 881.441 153.301 879.017 154.381 876.356 C 155.442 873.734 155.986 870.936 155.985 868.11 C 155.986 865.284 155.442 862.483 154.382 859.863 C 153.28 857.149 151.644 854.683 149.571 852.613 C 147.5 850.54 145.034 848.904 142.319 847.8 C 139.699 846.741 136.899 846.196 134.073 846.197 C 131.247 846.197 128.448 846.741 125.827 847.802 C 123.166 848.882 120.743 850.477 118.696 852.494 L 118.696 852.493 L 118.583 852.606 L 118.583 852.606 L 115.704 855.485 L 115.711 855.492 L 115.711 855.492 L 115.711 855.492 L 115.711 855.492 L 115.711 855.492 L 115.711 855.492 L 115.711 855.492 L 115.711 855.492 C 114.92 856.26 114.474 857.283 114.474 858.493 L 114.474 858.493 C 114.474 860.875 116.408 862.809 118.79 862.809 C 119.961 862.809 121.024 862.342 121.802 861.583 L 121.808 861.589 L 124.683 858.715 L 124.683 858.715 C 124.684 858.713 124.685 858.712 124.686 858.711 C 124.69 858.707 124.694 858.704 124.698 858.7 C 125.947 857.452 127.435 856.467 129.071 855.802 C 130.66 855.16 132.358 854.829 134.074 854.83 C 135.788 854.83 137.486 855.158 139.077 855.802 C 140.719 856.469 142.213 857.461 143.467 858.717 C 144.722 859.97 145.713 861.464 146.382 863.107 C 147.024 864.697 147.354 866.396 147.353 868.109 C 147.354 869.824 147.024 871.524 146.381 873.112 C 145.714 874.755 144.723 876.247 143.468 877.499 L 143.468 877.5 L 134.078 886.889 L 99.892 852.703 C 99.878 852.689 99.865 852.675 99.851 852.662 C 99.814 852.625 99.777 852.588 99.74 852.551 L 99.604 852.415 L 99.602 852.416 C 97.583 850.458 95.204 848.906 92.597 847.847 C 89.977 846.787 87.177 846.243 84.35 846.244 C 81.524 846.243 78.726 846.787 76.106 847.847 C 73.391 848.95 70.925 850.586 68.854 852.659 C 66.781 854.73 65.146 857.196 64.043 859.91 C 62.983 862.53 62.438 865.329 62.439 868.155 C 62.438 870.981 62.983 873.781 64.043 876.401 C 65.102 879.009 66.653 881.388 68.613 883.406 L 68.611 883.408 L 68.733 883.529 C 68.774 883.571 68.816 883.613 68.858 883.655 L 68.859 883.654 L 106.039 920.664 L 106.042 920.661 C 106.833 921.546 107.983 922.105 109.263 922.105 C 110.388 922.105 111.198 921.827 112.235 920.93 Z  M 109.274 911.693 L 127.974 892.993 L 93.654 858.673 C 92.42 857.46 90.958 856.5 89.355 855.848 C 87.764 855.205 86.067 854.875 84.352 854.876 C 82.636 854.875 80.938 855.206 79.349 855.848 C 77.704 856.516 76.212 857.507 74.959 858.763 C 73.704 860.016 72.711 861.509 72.043 863.153 C 71.401 864.743 71.07 866.441 71.073 868.155 C 71.071 869.87 71.4 871.569 72.044 873.158 C 72.693 874.758 73.65 876.214 74.858 877.446 L 74.858 877.446 L 74.858 877.446 L 74.858 877.446 L 74.858 877.446 L 74.858 877.446 L 109.274 911.693 Q 108.839 911.633 109.274 911.693 Z " fill-rule="evenodd" fill="rgb(111,196,78)"/></g></svg>