<?xml version="1.0" standalone="no"?><!-- Generator: Gravit.io --><svg xmlns="http://www.w3.org/2000/svg" xmlns:xlink="http://www.w3.org/1999/xlink" style="isolation:isolate" viewBox="35 640 150 147.41" width="150" height="147.41"><g><path d=" M 112.235 755.93 L 112.235 755.93 L 112.241 755.935 L 112.241 755.935 L 112.241 755.935 L 112.241 755.935 L 134.078 734.098 L 143.959 743.978 L 143.959 743.978 L 144.087 744.106 L 144.093 744.101 C 146.162 745.982 148.572 747.452 151.193 748.429 C 153.785 749.393 156.536 749.86 159.302 749.809 C 162.072 749.759 164.808 749.186 167.367 748.122 C 169.635 747.08 173.024 744.959 175.147 742.542 C 177.3 740.092 179.184 737.404 180.745 734.555 C 182.392 731.465 183.501 728.154 184.075 724.713 C 184.686 721.031 185 717.313 185 713.575 C 184.981 704.843 183.317 696.204 180.079 688.082 C 176.897 680.072 172.346 672.671 166.648 666.215 C 160.913 659.684 154.105 654.153 146.538 649.861 C 138.786 645.476 130.313 642.461 121.507 640.999 C 117.53 640.333 113.497 640 109.463 640 C 100.768 640.019 92.147 641.536 83.97 644.496 C 75.923 647.4 68.411 651.637 61.77 657.039 C 55.11 662.422 49.43 668.934 45.009 676.26 C 40.476 683.827 37.387 692.152 35.944 700.847 C 35.315 704.64 35 708.469 35 712.299 C 35.019 721.105 36.647 729.819 39.773 738.051 C 42.863 746.191 47.303 753.758 52.89 760.437 C 58.495 767.134 65.211 772.832 72.722 777.29 C 80.4 781.841 88.854 784.949 97.642 786.429 C 101.619 787.077 105.634 787.41 109.649 787.41 C 125.725 787.41 141.358 782.045 154.068 772.203 C 154.956 771.518 155.548 770.501 155.696 769.391 C 155.825 768.262 155.529 767.134 154.826 766.246 C 154.142 765.358 153.124 764.766 152.014 764.618 C 150.886 764.488 149.757 764.784 148.869 765.487 C 137.639 774.164 123.838 778.9 109.649 778.9 C 106.096 778.9 102.544 778.604 99.048 778.03 C 91.296 776.717 83.841 773.997 77.07 769.983 C 70.372 766.005 64.415 760.936 59.42 754.961 C 54.425 749.022 50.485 742.288 47.728 735.036 C 44.953 727.765 43.529 720.069 43.51 712.299 C 43.51 708.932 43.788 705.565 44.343 702.253 C 45.619 694.613 48.32 687.287 52.298 680.664 C 56.22 674.17 61.233 668.416 67.116 663.643 C 73.036 658.852 79.697 655.078 86.856 652.488 C 94.108 649.861 101.749 648.51 109.463 648.51 C 113.034 648.51 116.605 648.806 120.12 649.38 C 127.927 650.693 135.456 653.357 142.338 657.279 C 149.091 661.09 155.141 666.011 160.265 671.839 C 165.316 677.574 169.349 684.123 172.179 691.227 C 175.01 698.35 176.471 705.935 176.49 713.575 C 176.49 716.85 176.212 720.106 175.676 723.325 C 175.269 725.823 174.455 728.265 173.271 730.503 C 172.07 732.676 170.76 734.816 169.054 736.609 C 168.01 737.705 165.885 739.486 164.046 740.152 C 162.491 740.799 160.827 741.147 159.141 741.178 C 157.459 741.209 155.784 740.924 154.205 740.339 C 152.619 739.747 151.161 738.857 149.909 737.72 L 140.182 727.993 L 149.689 718.486 L 149.689 718.486 C 151.707 716.441 153.301 714.017 154.381 711.356 C 155.442 708.734 155.986 705.936 155.985 703.11 C 155.986 700.284 155.442 697.483 154.382 694.863 C 153.28 692.149 151.644 689.683 149.571 687.613 C 147.5 685.54 145.034 683.904 142.319 682.8 C 139.699 681.741 136.899 681.196 134.073 681.197 C 131.247 681.197 128.448 681.741 125.827 682.802 C 123.166 683.882 120.743 685.477 118.696 687.494 L 118.696 687.493 L 118.583 687.606 L 118.583 687.606 L 115.704 690.485 L 115.711 690.492 L 115.711 690.492 L 115.711 690.492 L 115.711 690.492 L 115.711 690.492 L 115.711 690.492 L 115.711 690.492 L 115.711 690.492 C 114.92 691.26 114.474 692.283 114.474 693.493 L 114.474 693.493 C 114.474 695.875 116.408 697.809 118.79 697.809 C 119.961 697.809 121.024 697.342 121.802 696.583 L 121.808 696.589 L 124.683 693.715 L 124.683 693.715 C 124.684 693.713 124.685 693.712 124.686 693.711 C 124.69 693.707 124.694 693.704 124.698 693.7 C 125.947 692.452 127.435 691.467 129.071 690.802 C 130.66 690.16 132.358 689.829 134.074 689.83 C 135.788 689.83 137.486 690.158 139.077 690.802 C 140.719 691.469 142.213 692.461 143.467 693.717 C 144.722 694.97 145.713 696.464 146.382 698.107 C 147.024 699.697 147.354 701.396 147.353 703.109 C 147.354 704.824 147.024 706.524 146.381 708.112 C 145.714 709.755 144.723 711.247 143.468 712.499 L 143.468 712.5 L 134.078 721.889 L 99.892 687.703 C 99.878 687.689 99.865 687.675 99.851 687.662 C 99.814 687.625 99.777 687.588 99.74 687.551 L 99.604 687.415 L 99.602 687.416 C 97.583 685.458 95.204 683.906 92.597 682.847 C 89.977 681.787 87.177 681.243 84.35 681.244 C 81.524 681.243 78.726 681.787 76.106 682.847 C 73.391 683.95 70.925 685.586 68.854 687.659 C 66.781 689.73 65.146 692.196 64.043 694.91 C 62.983 697.53 62.438 700.329 62.439 703.155 C 62.438 705.981 62.983 708.781 64.043 711.401 C 65.102 714.009 66.653 716.388 68.613 718.406 L 68.611 718.408 L 68.733 718.529 C 68.774 718.571 68.816 718.613 68.858 718.655 L 68.859 718.654 L 106.039 755.664 L 106.042 755.661 C 106.833 756.546 107.983 757.105 109.263 757.105 C 110.388 757.105 111.198 756.827 112.235 755.93 Z  M 109.274 746.693 L 127.974 727.993 L 93.654 693.673 C 92.42 692.46 90.958 691.5 89.355 690.848 C 87.764 690.205 86.067 689.875 84.352 689.876 C 82.636 689.875 80.938 690.206 79.349 690.848 C 77.704 691.516 76.212 692.507 74.959 693.763 C 73.704 695.016 72.711 696.509 72.043 698.153 C 71.401 699.743 71.07 701.441 71.073 703.155 C 71.071 704.87 71.4 706.569 72.044 708.158 C 72.693 709.758 73.65 711.214 74.858 712.446 L 74.858 712.446 L 74.858 712.446 L 74.858 712.446 L 74.858 712.446 L 74.858 712.446 L 109.274 746.693 Q 108.839 746.633 109.274 746.693 Z " fill-rule="evenodd" fill="rgb(244,84,124)"/></g></svg>