<?xml version="1.0" standalone="no"?><!-- Generator: Gravit.io --><svg xmlns="http://www.w3.org/2000/svg" xmlns:xlink="http://www.w3.org/1999/xlink" style="isolation:isolate" viewBox="35 475 150 147.41" width="150" height="147.41"><g><path d=" M 112.235 590.93 L 112.235 590.93 L 112.241 590.935 L 112.241 590.935 L 112.241 590.935 L 112.241 590.935 L 134.078 569.098 L 143.959 578.978 L 143.959 578.978 L 144.087 579.106 L 144.093 579.101 C 146.162 580.982 148.572 582.452 151.193 583.429 C 153.785 584.393 156.536 584.86 159.302 584.809 C 162.072 584.759 164.808 584.186 167.367 583.122 C 169.635 582.08 173.024 579.959 175.147 577.542 C 177.3 575.092 179.184 572.404 180.745 569.555 C 182.392 566.465 183.501 563.154 184.075 559.713 C 184.686 556.031 185 552.313 185 548.575 C 184.981 539.843 183.317 531.204 180.079 523.082 C 176.897 515.072 172.346 507.671 166.648 501.215 C 160.913 494.684 154.105 489.153 146.538 484.861 C 138.786 480.476 130.313 477.461 121.507 475.999 C 117.53 475.333 113.497 475 109.463 475 C 100.768 475.019 92.147 476.536 83.97 479.496 C 75.923 482.4 68.411 486.637 61.77 492.039 C 55.11 497.422 49.43 503.934 45.009 511.26 C 40.476 518.827 37.387 527.152 35.944 535.847 C 35.315 539.64 35 543.469 35 547.299 C 35.019 556.105 36.647 564.819 39.773 573.051 C 42.863 581.191 47.303 588.758 52.89 595.437 C 58.495 602.134 65.211 607.832 72.722 612.29 C 80.4 616.841 88.854 619.949 97.642 621.429 C 101.619 622.077 105.634 622.41 109.649 622.41 C 125.725 622.41 141.358 617.045 154.068 607.203 C 154.956 606.518 155.548 605.501 155.696 604.391 C 155.825 603.262 155.529 602.134 154.826 601.246 C 154.142 600.358 153.124 599.766 152.014 599.618 C 150.886 599.488 149.757 599.784 148.869 600.487 C 137.639 609.164 123.838 613.9 109.649 613.9 C 106.096 613.9 102.544 613.604 99.048 613.03 C 91.296 611.717 83.841 608.997 77.07 604.983 C 70.372 601.005 64.415 595.936 59.42 589.961 C 54.425 584.022 50.485 577.288 47.728 570.036 C 44.953 562.765 43.529 555.069 43.51 547.299 C 43.51 543.932 43.788 540.565 44.343 537.253 C 45.619 529.613 48.32 522.287 52.298 515.664 C 56.22 509.17 61.233 503.416 67.116 498.643 C 73.036 493.852 79.697 490.078 86.856 487.488 C 94.108 484.861 101.749 483.51 109.463 483.51 C 113.034 483.51 116.605 483.806 120.12 484.38 C 127.927 485.693 135.456 488.357 142.338 492.279 C 149.091 496.09 155.141 501.011 160.265 506.839 C 165.316 512.574 169.349 519.123 172.179 526.227 C 175.01 533.35 176.471 540.935 176.49 548.575 C 176.49 551.85 176.212 555.106 175.676 558.325 C 175.269 560.823 174.455 563.265 173.271 565.503 C 172.07 567.676 170.76 569.816 169.054 571.609 C 168.01 572.705 165.885 574.486 164.046 575.152 C 162.491 575.799 160.827 576.147 159.141 576.178 C 157.459 576.209 155.784 575.924 154.205 575.339 C 152.619 574.747 151.161 573.857 149.909 572.72 L 140.182 562.993 L 149.689 553.486 L 149.689 553.486 C 151.707 551.441 153.301 549.017 154.381 546.356 C 155.442 543.734 155.986 540.936 155.985 538.11 C 155.986 535.284 155.442 532.483 154.382 529.863 C 153.28 527.149 151.644 524.683 149.571 522.613 C 147.5 520.54 145.034 518.904 142.319 517.8 C 139.699 516.741 136.899 516.196 134.073 516.197 C 131.247 516.197 128.448 516.741 125.827 517.802 C 123.166 518.882 120.743 520.477 118.696 522.494 L 118.696 522.493 L 118.583 522.606 L 118.583 522.606 L 115.704 525.485 L 115.711 525.492 L 115.711 525.492 L 115.711 525.492 L 115.711 525.492 L 115.711 525.492 L 115.711 525.492 L 115.711 525.492 L 115.711 525.492 C 114.92 526.26 114.474 527.283 114.474 528.493 L 114.474 528.493 C 114.474 530.875 116.408 532.809 118.79 532.809 C 119.961 532.809 121.024 532.342 121.802 531.583 L 121.808 531.589 L 124.683 528.715 L 124.683 528.715 C 124.684 528.713 124.685 528.712 124.686 528.711 C 124.69 528.707 124.694 528.704 124.698 528.7 C 125.947 527.452 127.435 526.467 129.071 525.802 C 130.66 525.16 132.358 524.829 134.074 524.83 C 135.788 524.83 137.486 525.158 139.077 525.802 C 140.719 526.469 142.213 527.461 143.467 528.717 C 144.722 529.97 145.713 531.464 146.382 533.107 C 147.024 534.697 147.354 536.396 147.353 538.109 C 147.354 539.824 147.024 541.524 146.381 543.112 C 145.714 544.755 144.723 546.247 143.468 547.499 L 143.468 547.5 L 134.078 556.889 L 99.892 522.703 C 99.878 522.689 99.865 522.675 99.851 522.662 C 99.814 522.625 99.777 522.588 99.74 522.551 L 99.604 522.415 L 99.602 522.416 C 97.583 520.458 95.204 518.906 92.597 517.847 C 89.977 516.787 87.177 516.243 84.35 516.244 C 81.524 516.243 78.726 516.787 76.106 517.847 C 73.391 518.95 70.925 520.586 68.854 522.659 C 66.781 524.73 65.146 527.196 64.043 529.91 C 62.983 532.53 62.438 535.329 62.439 538.155 C 62.438 540.981 62.983 543.781 64.043 546.401 C 65.102 549.009 66.653 551.388 68.613 553.406 L 68.611 553.408 L 68.733 553.529 C 68.774 553.571 68.816 553.613 68.858 553.655 L 68.859 553.654 L 106.039 590.664 L 106.042 590.661 C 106.833 591.546 107.983 592.105 109.263 592.105 C 110.388 592.105 111.198 591.827 112.235 590.93 Z  M 109.274 581.693 L 127.974 562.993 L 93.654 528.673 C 92.42 527.46 90.958 526.5 89.355 525.848 C 87.764 525.205 86.067 524.875 84.352 524.876 C 82.636 524.875 80.938 525.206 79.349 525.848 C 77.704 526.516 76.212 527.507 74.959 528.763 C 73.704 530.016 72.711 531.509 72.043 533.153 C 71.401 534.743 71.07 536.441 71.073 538.155 C 71.071 539.87 71.4 541.569 72.044 543.158 C 72.693 544.758 73.65 546.214 74.858 547.446 L 74.858 547.446 L 74.858 547.446 L 74.858 547.446 L 74.858 547.446 L 74.858 547.446 L 109.274 581.693 Q 108.839 581.633 109.274 581.693 Z " fill-rule="evenodd" fill="rgb(255,255,255)"/></g></svg>