<svg viewBox="0 0 1055 1080" fill="none" xmlns="http://www.w3.org/2000/svg">
<g clip-path="url(#clip0)">
<path d="M183 493.5L193.5 483L201 491.5H212.5V483L223 472.5H235.5L242.5 481H258.5V504L248 510L242.5 518.5V538.5L227.5 554.5L175.5 560.5L164.5 548L191.5 520.5L183 512V493.5Z" fill="#E25F7D" fill-opacity="0.08"/>
<path d="M323 401.5H296L262 436.5V472.5H276V481L269 486.5V498.5H296L287 510V536H267L255 548H264.5V563.5H242.5V576H255L262 583.5V593H248L223 620H332.5L345 607V591L362.5 573L350.5 560.5H336.5V530L325.5 518.5V489L312 477.5V465L330.5 444.5V429.5H306L323 412V401.5Z" fill="#E25F7D" fill-opacity="0.08"/>
<path d="M183 493.5L193.5 483L201 491.5H212.5V483L223 472.5H235.5L242.5 481H258.5V504L248 510L242.5 518.5V538.5L227.5 554.5L175.5 560.5L164.5 548L191.5 520.5L183 512V493.5Z" stroke="#2C3437" stroke-width="5" stroke-linecap="round" stroke-linejoin="bevel"/>
<path d="M323 401.5H296L262 436.5V472.5H276V481L269 486.5V498.5H296L287 510V536H267L255 548H264.5V563.5H242.5V576H255L262 583.5V593H248L223 620H332.5L345 607V591L362.5 573L350.5 560.5H336.5V530L325.5 518.5V489L312 477.5V465L330.5 444.5V429.5H306L323 412V401.5Z" stroke="#2C3437" stroke-width="5" stroke-linecap="round" stroke-linejoin="bevel"/>
<path d="M442.5 858.5L458.5 843.5L461 870L451 888L442.5 878.5V858.5Z" fill="#E25F7D" fill-opacity="0.08"/>
<path d="M451 894.5L430.5 901V949L439.5 959L448.5 949L458.5 952.5L463.5 915.5L451 894.5Z" fill="#E25F7D" fill-opacity="0.08"/>
<path d="M319.5 911.5L305 920.5L316.5 932.5L328.5 920.5L319.5 911.5Z" fill="#E25F7D" fill-opacity="0.08"/>
<path d="M516 981L509 990.5L556.5 1020.5H567.5L576 1008.5L567.5 997L574.5 981H516Z" fill="#E25F7D" fill-opacity="0.08"/>
<path d="M137 760.5L246 801.5L273.5 747V724.5L225 677V653.5H249.5L264 667H282V636L299.5 653.5H327L343.5 639V619.5H362L390.5 597.5L400 568.5L415 558.5H466.5V482L475.5 472H490.5L502.5 459.5V493.5L490.5 516.5H502.5V533H490.5V548.5H513V561.5L540 546.5L557.5 561.5L618.5 533V546.5H633L655 523.5V472L672 454.5L693.5 475.5L698 472V438L683 419L707 400H741L752.5 388V376H730L672 400L651.5 381V352.5L643.5 324.5L683 259.5V241.5H655.5L641.5 256V295L601 335.5V381L625.5 406L595.5 436L586.5 503H559V521H540V490L516 449V423L506 412L465.5 453L443.5 433.5V332L503 298L529 270L565 193.5V156.5L686 85L715.5 99.5V117.5H769L820 134.5L844 160L826.5 190H771.5V202.5L789 209.5V225.5L810.5 256H831.5V241.5H816V223L847.5 231L855 220L839.5 202.5L857 171H878V156.5L862.5 146.5V128.5L855 117.5L874 99.5L889 114L878 123.5V136.5L892.5 146.5L906 132.5L900 117.5L925 99.5L957 79H975.5V99.5L1004.5 92L1022 79L1035 85L1061.5 69L1086.5 99.5L1123.5 1100.5L1073 1097L1061 1087L1030 1022L1037 1006L1026 974L997.5 958L984 977L947.5 991.5L910 977V997L880 1003L835.5 985.5L814 927H797.5L795 914L816 897.5H842L854.5 884.5L847.5 877.5H829L807.5 897.5H791V889.5H773.5L752.5 902L751 916H740L727.5 905.5V921L746 942.5L748 963.5L759 969L762.5 977H751V990.5H737.5L748 1016L719 1013.5L698.5 987.5V971.5L655.5 921V884.5L589 840L562.5 804.5H548.5L539.5 779.5L519.5 787V813.5L542 832.5L564.5 875H592L597 884.5L592 889.5L641 918.5V939L614 918.5L600.5 932.5L614 946V961.5L591 985.5L581.5 977L591 959L584 932.5H570L516 880.5H499L475 823.5L451 810.5L396.5 840L356.5 821.5L333.5 845.5V862L290.5 876L258 903V932.5L194.5 973.5L150 963L117 975.5L88 932.5L52 923L71 893.5L60.5 880.5L100.5 825V774.5L137 760.5Z" fill="#E25F7D" fill-opacity="0.08"/>
<path d="M442.5 858.5L458.5 843.5L461 870L451 888L442.5 878.5V858.5Z" stroke="#2C3437" stroke-width="5" stroke-linecap="round" stroke-linejoin="bevel"/>
<path d="M451 894.5L430.5 901V949L439.5 959L448.5 949L458.5 952.5L463.5 915.5L451 894.5Z" stroke="#2C3437" stroke-width="5" stroke-linecap="round" stroke-linejoin="bevel"/>
<path d="M319.5 911.5L305 920.5L316.5 932.5L328.5 920.5L319.5 911.5Z" stroke="#2C3437" stroke-width="5" stroke-linecap="round" stroke-linejoin="bevel"/>
<path d="M516 981L509 990.5L556.5 1020.5H567.5L576 1008.5L567.5 997L574.5 981H516Z" stroke="#2C3437" stroke-width="5" stroke-linecap="round" stroke-linejoin="bevel"/>
<path d="M137 760.5L246 801.5L273.5 747V724.5L225 677V653.5H249.5L264 667H282V636L299.5 653.5H327L343.5 639V619.5H362L390.5 597.5L400 568.5L415 558.5H466.5V482L475.5 472H490.5L502.5 459.5V493.5L490.5 516.5H502.5V533H490.5V548.5H513V561.5L540 546.5L557.5 561.5L618.5 533V546.5H633L655 523.5V472L672 454.5L693.5 475.5L698 472V438L683 419L707 400H741L752.5 388V376H730L672 400L651.5 381V352.5L643.5 324.5L683 259.5V241.5H655.5L641.5 256V295L601 335.5V381L625.5 406L595.5 436L586.5 503H559V521H540V490L516 449V423L506 412L465.5 453L443.5 433.5V332L503 298L529 270L565 193.5V156.5L686 85L715.5 99.5V117.5H769L820 134.5L844 160L826.5 190H771.5V202.5L789 209.5V225.5L810.5 256H831.5V241.5H816V223L847.5 231L855 220L839.5 202.5L857 171H878V156.5L862.5 146.5V128.5L855 117.5L874 99.5L889 114L878 123.5V136.5L892.5 146.5L906 132.5L900 117.5L925 99.5L957 79H975.5V99.5L1004.5 92L1022 79L1035 85L1061.5 69L1086.5 99.5L1123.5 1100.5L1073 1097L1061 1087L1030 1022L1037 1006L1026 974L997.5 958L984 977L947.5 991.5L910 977V997L880 1003L835.5 985.5L814 927H797.5L795 914L816 897.5H842L854.5 884.5L847.5 877.5H829L807.5 897.5H791V889.5H773.5L752.5 902L751 916H740L727.5 905.5V921L746 942.5L748 963.5L759 969L762.5 977H751V990.5H737.5L748 1016L719 1013.5L698.5 987.5V971.5L655.5 921V884.5L589 840L562.5 804.5H548.5L539.5 779.5L519.5 787V813.5L542 832.5L564.5 875H592L597 884.5L592 889.5L641 918.5V939L614 918.5L600.5 932.5L614 946V961.5L591 985.5L581.5 977L591 959L584 932.5H570L516 880.5H499L475 823.5L451 810.5L396.5 840L356.5 821.5L333.5 845.5V862L290.5 876L258 903V932.5L194.5 973.5L150 963L117 975.5L88 932.5L52 923L71 893.5L60.5 880.5L100.5 825V774.5L137 760.5Z" stroke="#2C3437" stroke-width="5" stroke-linecap="round" stroke-linejoin="bevel"/>
<path d="M853.5 727L875 721V727H897.5V739L890 748.5H912V768H930L970 727L1044.5 762.5H1062L1074 816.5L1055 820L1032 830H932L896.5 856V867.5H847.5L811.5 846L819 839.5V825.5L829 816.5V784L843 775V761.5L853.5 727Z" fill="white" stroke="#2C3437" stroke-width="5" stroke-linecap="round" stroke-linejoin="bevel"/>
<path d="M758 1050.5V1038H821V1047L785.5 1061V1050.5H758Z" fill="#E25F7D" fill-opacity="0.08" stroke="#2C3437" stroke-width="5" stroke-linecap="round" stroke-linejoin="bevel"/>
<path d="M162.5 122L149.5 136H164V150.5H138L149.5 163V175.5L138 180L175.5 218.5L227 215.5L253 189V164.5L235 146H182.5V122H162.5Z" fill="#E25F7D" fill-opacity="0.08" stroke="#2C3437" stroke-width="5" stroke-linecap="round" stroke-linejoin="bevel"/>
<circle cx="346.5" cy="680.5" r="7.5" fill="#E25F7D"/>
<circle cx="397.5" cy="632.5" r="7.5" fill="#6FC44E"/>
<circle cx="520.5" cy="869.5" r="7.5" fill="#E25F7D"/>
<circle cx="737.5" cy="971.5" r="7.5" fill="#E25F7D"/>
<circle cx="890.5" cy="462.5" r="7.5" fill="#E25F7D"/>
<circle cx="164.5" cy="185.5" r="7.5" fill="#E25F7D"/>
<circle cx="325.5" cy="602.5" r="7.5" fill="#E25F7D"/>
<circle cx="543.5" cy="595.5" r="7.5" fill="#E25F7D"/>
<circle cx="603.5" cy="410.5" r="7.5" fill="#E25F7D"/>
<circle cx="828.5" cy="629.5" r="7.5" fill="#E25F7D"/>
<circle cx="696.5" cy="376.5" r="7.5" fill="#E25F7D"/>
<path d="M545.18 619.448C545.912 619.652 546.476 620.024 546.872 620.564C547.28 621.104 547.484 621.764 547.484 622.544C547.484 623.624 547.094 624.47 546.314 625.082C545.546 625.694 544.484 626 543.128 626H537.368V613.31H542.948C544.268 613.31 545.3 613.604 546.044 614.192C546.8 614.768 547.178 615.578 547.178 616.622C547.178 617.294 546.998 617.876 546.638 618.368C546.29 618.86 545.804 619.22 545.18 619.448ZM539.636 618.656H542.57C544.166 618.656 544.964 618.062 544.964 616.874C544.964 616.274 544.766 615.83 544.37 615.542C543.974 615.254 543.374 615.11 542.57 615.11H539.636V618.656ZM542.876 624.2C543.716 624.2 544.328 624.05 544.712 623.75C545.096 623.45 545.288 622.982 545.288 622.346C545.288 621.71 545.09 621.236 544.694 620.924C544.31 620.612 543.704 620.456 542.876 620.456H539.636V624.2H542.876ZM557.179 622.004H551.185C551.257 622.82 551.503 623.426 551.923 623.822C552.343 624.218 552.943 624.416 553.723 624.416C554.695 624.416 555.583 624.104 556.387 623.48L557.035 625.028C556.627 625.364 556.111 625.634 555.487 625.838C554.875 626.042 554.257 626.144 553.633 626.144C552.193 626.144 551.053 625.736 550.213 624.92C549.385 624.104 548.971 622.988 548.971 621.572C548.971 620.672 549.151 619.874 549.511 619.178C549.871 618.482 550.375 617.942 551.023 617.558C551.683 617.174 552.427 616.982 553.255 616.982C554.467 616.982 555.421 617.372 556.117 618.152C556.825 618.932 557.179 620.006 557.179 621.374V622.004ZM553.309 618.566C552.709 618.566 552.223 618.758 551.851 619.142C551.491 619.526 551.269 620.078 551.185 620.798H555.253C555.229 620.066 555.049 619.514 554.713 619.142C554.377 618.758 553.909 618.566 553.309 618.566ZM564.816 618.854L563.502 618.98C562.014 619.136 561.27 619.892 561.27 621.248V626H559.02V617.198H561.162V618.746C561.618 617.69 562.56 617.114 563.988 617.018L564.672 616.964L564.816 618.854ZM565.91 613.31H568.16V626H565.91V613.31ZM570.481 617.198H572.731V626H570.481V617.198ZM572.839 613.112V615.326H570.355V613.112H572.839ZM580.163 616.982C581.219 616.982 582.005 617.282 582.521 617.882C583.037 618.482 583.295 619.388 583.295 620.6V626H581.045V620.726C581.045 620.042 580.913 619.544 580.649 619.232C580.397 618.92 579.995 618.764 579.443 618.764C578.795 618.764 578.273 618.968 577.877 619.376C577.493 619.784 577.301 620.33 577.301 621.014V626H575.051V617.198H577.247V618.512C577.547 618.02 577.949 617.642 578.453 617.378C578.957 617.114 579.527 616.982 580.163 616.982Z" fill="#E25F7D"/>
<path d="M391.368 650.31H393.69V661.092H399.612V663H391.368V650.31ZM408.824 659.004H402.83C402.902 659.82 403.148 660.426 403.568 660.822C403.988 661.218 404.588 661.416 405.368 661.416C406.34 661.416 407.228 661.104 408.032 660.48L408.68 662.028C408.272 662.364 407.756 662.634 407.132 662.838C406.52 663.042 405.902 663.144 405.278 663.144C403.838 663.144 402.698 662.736 401.858 661.92C401.03 661.104 400.616 659.988 400.616 658.572C400.616 657.672 400.796 656.874 401.156 656.178C401.516 655.482 402.02 654.942 402.668 654.558C403.328 654.174 404.072 653.982 404.9 653.982C406.112 653.982 407.066 654.372 407.762 655.152C408.47 655.932 408.824 657.006 408.824 658.374V659.004ZM404.954 655.566C404.354 655.566 403.868 655.758 403.496 656.142C403.136 656.526 402.914 657.078 402.83 657.798H406.898C406.874 657.066 406.694 656.514 406.358 656.142C406.022 655.758 405.554 655.566 404.954 655.566ZM418.746 654.198V663H416.55V661.65C416.274 662.13 415.902 662.502 415.434 662.766C414.966 663.018 414.438 663.144 413.85 663.144C411.69 663.144 410.61 661.932 410.61 659.508V654.198H412.86V659.526C412.86 660.15 412.986 660.612 413.238 660.912C413.49 661.212 413.886 661.362 414.426 661.362C415.05 661.362 415.548 661.158 415.92 660.75C416.304 660.33 416.496 659.778 416.496 659.094V654.198H418.746ZM429.476 654.216L425.624 663H423.662L419.846 654.216H422.222L424.706 660.426L427.262 654.216H429.476ZM438.144 659.004H432.15C432.222 659.82 432.468 660.426 432.888 660.822C433.308 661.218 433.908 661.416 434.688 661.416C435.66 661.416 436.548 661.104 437.352 660.48L438 662.028C437.592 662.364 437.076 662.634 436.452 662.838C435.84 663.042 435.222 663.144 434.598 663.144C433.158 663.144 432.018 662.736 431.178 661.92C430.35 661.104 429.936 659.988 429.936 658.572C429.936 657.672 430.116 656.874 430.476 656.178C430.836 655.482 431.34 654.942 431.988 654.558C432.648 654.174 433.392 653.982 434.22 653.982C435.432 653.982 436.386 654.372 437.082 655.152C437.79 655.932 438.144 657.006 438.144 658.374V659.004ZM434.274 655.566C433.674 655.566 433.188 655.758 432.816 656.142C432.456 656.526 432.234 657.078 432.15 657.798H436.218C436.194 657.066 436.014 656.514 435.678 656.142C435.342 655.758 434.874 655.566 434.274 655.566ZM445.096 653.982C446.152 653.982 446.938 654.282 447.454 654.882C447.97 655.482 448.228 656.388 448.228 657.6V663H445.978V657.726C445.978 657.042 445.846 656.544 445.582 656.232C445.33 655.92 444.928 655.764 444.376 655.764C443.728 655.764 443.206 655.968 442.81 656.376C442.426 656.784 442.234 657.33 442.234 658.014V663H439.984V654.198H442.18V655.512C442.48 655.02 442.882 654.642 443.386 654.378C443.89 654.114 444.46 653.982 445.096 653.982Z" fill="#6FC44E"/>
<path d="M701.42 347.31V360H699.152V354.492H692.654V360H690.368V347.31H692.654V352.62H699.152V347.31H701.42ZM711.673 356.004H705.679C705.751 356.82 705.997 357.426 706.417 357.822C706.837 358.218 707.437 358.416 708.217 358.416C709.189 358.416 710.077 358.104 710.881 357.48L711.529 359.028C711.121 359.364 710.605 359.634 709.981 359.838C709.369 360.042 708.751 360.144 708.127 360.144C706.687 360.144 705.547 359.736 704.707 358.92C703.879 358.104 703.465 356.988 703.465 355.572C703.465 354.672 703.645 353.874 704.005 353.178C704.365 352.482 704.869 351.942 705.517 351.558C706.177 351.174 706.921 350.982 707.749 350.982C708.961 350.982 709.915 351.372 710.611 352.152C711.319 352.932 711.673 354.006 711.673 355.374V356.004ZM707.803 352.566C707.203 352.566 706.717 352.758 706.345 353.142C705.985 353.526 705.763 354.078 705.679 354.798H709.747C709.723 354.066 709.543 353.514 709.207 353.142C708.871 352.758 708.403 352.566 707.803 352.566ZM713.514 347.31H715.764V360H713.514V347.31ZM721.324 360.144C720.544 360.144 719.824 360.048 719.164 359.856C718.516 359.664 717.964 359.388 717.508 359.028L718.138 357.462C719.074 358.146 720.148 358.488 721.36 358.488C721.876 358.488 722.266 358.404 722.53 358.236C722.806 358.068 722.944 357.828 722.944 357.516C722.944 357.252 722.848 357.048 722.656 356.904C722.476 356.76 722.146 356.628 721.666 356.508L720.226 356.184C719.41 356.004 718.804 355.71 718.408 355.302C718.012 354.894 717.814 354.366 717.814 353.718C717.814 353.178 717.964 352.704 718.264 352.296C718.576 351.876 719.002 351.552 719.542 351.324C720.094 351.096 720.73 350.982 721.45 350.982C722.074 350.982 722.674 351.078 723.25 351.27C723.838 351.462 724.354 351.732 724.798 352.08L724.168 353.61C723.256 352.95 722.344 352.62 721.432 352.62C720.94 352.62 720.556 352.71 720.28 352.89C720.004 353.07 719.866 353.322 719.866 353.646C719.866 353.886 719.95 354.084 720.118 354.24C720.298 354.396 720.58 354.516 720.964 354.6L722.458 354.942C723.334 355.134 723.976 355.44 724.384 355.86C724.792 356.268 724.996 356.808 724.996 357.48C724.996 358.296 724.666 358.944 724.006 359.424C723.346 359.904 722.452 360.144 721.324 360.144ZM726.82 351.198H729.07V360H726.82V351.198ZM729.178 347.112V349.326H726.694V347.112H729.178ZM736.503 350.982C737.559 350.982 738.345 351.282 738.861 351.882C739.377 352.482 739.635 353.388 739.635 354.6V360H737.385V354.726C737.385 354.042 737.253 353.544 736.989 353.232C736.737 352.92 736.335 352.764 735.783 352.764C735.135 352.764 734.613 352.968 734.217 353.376C733.833 353.784 733.641 354.33 733.641 355.014V360H731.391V351.198H733.587V352.512C733.887 352.02 734.289 351.642 734.793 351.378C735.297 351.114 735.867 350.982 736.503 350.982ZM747.95 360L744.17 355.986V360H741.92V347.31H744.17V355.05L747.716 351.216H750.452L746.492 355.428L750.74 360H747.95ZM751.57 351.198H753.82V360H751.57V351.198ZM753.928 347.112V349.326H751.444V347.112H753.928Z" fill="#E25F7D"/>
<path d="M830.576 612L824.69 606.096V612H822.368V599.31H824.69V604.98L830.342 599.31H833.114L826.976 605.412L833.402 612H830.576ZM834.053 603.198H836.303V612H834.053V603.198ZM836.411 599.112V601.326H833.927V599.112H836.411ZM846.345 608.004H840.351C840.423 608.82 840.669 609.426 841.089 609.822C841.509 610.218 842.109 610.416 842.889 610.416C843.861 610.416 844.749 610.104 845.553 609.48L846.201 611.028C845.793 611.364 845.277 611.634 844.653 611.838C844.041 612.042 843.423 612.144 842.799 612.144C841.359 612.144 840.219 611.736 839.379 610.92C838.551 610.104 838.137 608.988 838.137 607.572C838.137 606.672 838.317 605.874 838.677 605.178C839.037 604.482 839.541 603.942 840.189 603.558C840.849 603.174 841.593 602.982 842.421 602.982C843.633 602.982 844.587 603.372 845.283 604.152C845.991 604.932 846.345 606.006 846.345 607.374V608.004ZM842.475 604.566C841.875 604.566 841.389 604.758 841.017 605.142C840.657 605.526 840.435 606.078 840.351 606.798H844.419C844.395 606.066 844.215 605.514 843.879 605.142C843.543 604.758 843.075 604.566 842.475 604.566ZM856.433 603.216L852.581 612H850.619L846.803 603.216H849.179L851.663 609.426L854.219 603.216H856.433Z" fill="#E25F7D"/>
</g>
<defs>
<clipPath id="clip0">
<rect width="1055" height="1080" fill="white"/>
</clipPath>
</defs>
</svg>
