<svg xmlns="http://www.w3.org/2000/svg" viewBox="0 0 48 48" width="48" height="48"><title>notification</title><g class="nc-icon-wrapper" stroke-linecap="round" stroke-linejoin="round" stroke-width="2" fill="#6fc44e" stroke="#6fc44e"><path data-cap="butt" data-color="color-2" fill="none" stroke-miterlimit="10" d="M31,10.1c3.9,0.5,7,3.9,7,7.9 c0,4.1-3.1,7.4-7,7.9"/> <path data-cap="butt" data-color="color-2" fill="none" stroke-miterlimit="10" d="M18.7,26L26,38.5 c1.1,1.9,0.5,4.4-1.4,5.5l0,0c-1.9,1.1-4.4,0.5-5.5-1.4L9.4,26"/> <path fill="none" stroke="#111111" stroke-miterlimit="10" d="M14,10l-8,0 c-2.2,0-4,3.6-4,8c0,4.4,1.8,8,4,8h8"/> <path data-cap="butt" fill="none" stroke="#111111" stroke-miterlimit="10" d="M38,2c-5.9,0-11.1,3.2-13.8,8H14 c-2.2,0-4,3.6-4,8c0,4.4,1.8,8,4,8h10.2c2.8,4.8,7.9,8,13.8,8"/> <ellipse fill="none" stroke="#111111" stroke-miterlimit="10" cx="38" cy="18" rx="8" ry="16"/></g></svg>