<svg xmlns="http://www.w3.org/2000/svg" viewBox="0 0 48 48" width="48" height="48"><title>time alarm</title><g class="nc-icon-wrapper" stroke-linecap="round" stroke-linejoin="round" stroke-width="2" fill="#6fc44e" stroke="#6fc44e"><polyline data-color="color-2" points="24 17 24 27 34 27" fill="none" stroke-miterlimit="10"/> <line data-cap="butt" x1="7" y1="46" x2="11.881" y2="38.921" fill="none" stroke="#111111" stroke-miterlimit="10"/> <line data-cap="butt" x1="41" y1="46" x2="36.119" y2="38.921" fill="none" stroke="#111111" stroke-miterlimit="10"/> <circle cx="24" cy="27" r="17" fill="none" stroke="#111111" stroke-miterlimit="10"/> <path data-color="color-2" d="M19.7,4.6A9.981,9.981,0,0,0,3,12a10.9,10.9,0,0,0,1,4.4A24.167,24.167,0,0,1,19.7,4.6Z" fill="none" stroke-miterlimit="10"/> <path data-color="color-2" d="M28.3,4.6A9.981,9.981,0,0,1,45,12a10.9,10.9,0,0,1-1,4.4A24.167,24.167,0,0,0,28.3,4.6Z" fill="none" stroke-miterlimit="10"/></g></svg>