<?xml version="1.0" standalone="no"?><!-- Generator: Gravit.io --><svg xmlns="http://www.w3.org/2000/svg" xmlns:xlink="http://www.w3.org/1999/xlink" style="isolation:isolate" viewBox="692.24 593.047 250 250" width="250" height="250"><g><path d="M 692.24 843.047 L 692.24 593.047 C 692.24 593.047 692.24 593.047 692.24 593.047 L 942.24 593.047 C 942.24 593.047 942.24 593.047 942.24 593.047 L 942.24 843.047 C 942.24 843.047 942.24 843.047 942.24 843.047 L 692.24 843.047 C 692.24 843.047 692.24 843.047 692.24 843.047 Z" style="stroke:none;fill:#FFFFFF;stroke-miterlimit:10;"/><path d=" M 819.475 760.272 L 819.475 760.272 L 819.48 760.277 L 819.48 760.277 L 819.48 760.277 L 819.48 760.277 L 841.318 738.44 L 851.199 748.32 L 851.199 748.32 L 851.327 748.448 L 851.332 748.443 C 853.401 750.324 855.811 751.794 858.433 752.771 C 861.025 753.735 863.776 754.202 866.542 754.151 C 869.312 754.101 872.048 753.528 874.607 752.464 C 876.875 751.422 880.263 749.301 882.387 746.884 C 884.54 744.434 886.424 741.746 887.985 738.897 C 889.631 735.807 890.741 732.496 891.315 729.055 C 891.925 725.373 892.24 721.654 892.24 717.917 C 892.221 709.185 890.556 700.546 887.319 692.424 C 884.137 684.413 879.586 677.013 873.888 670.557 C 868.152 664.026 861.344 658.495 853.778 654.203 C 846.026 649.818 837.553 646.803 828.747 645.341 C 824.769 644.675 820.736 644.342 816.703 644.342 C 808.008 644.36 799.387 645.877 791.21 648.838 C 783.162 651.742 775.651 655.979 769.01 661.381 C 762.35 666.764 756.67 673.276 752.248 680.602 C 747.716 688.169 744.626 696.494 743.183 705.189 C 742.554 708.982 742.24 712.811 742.24 716.641 C 742.258 725.447 743.886 734.161 747.013 742.393 C 750.102 750.533 754.542 758.1 760.13 764.779 C 765.735 771.476 772.451 777.174 779.962 781.632 C 787.639 786.183 796.094 789.291 804.882 790.771 C 808.859 791.419 812.874 791.752 816.888 791.752 C 832.965 791.752 848.598 786.387 861.307 776.545 C 862.195 775.86 862.787 774.843 862.935 773.733 C 863.065 772.604 862.769 771.476 862.066 770.588 C 861.381 769.7 860.364 769.108 859.254 768.96 C 858.125 768.83 856.997 769.126 856.109 769.829 C 844.879 778.506 831.078 783.242 816.888 783.242 C 813.336 783.242 809.784 782.946 806.288 782.372 C 798.536 781.059 791.08 778.339 784.309 774.325 C 777.612 770.347 771.655 765.278 766.66 759.302 C 761.665 753.364 757.724 746.63 754.968 739.378 C 752.193 732.107 750.768 724.411 750.75 716.641 C 750.75 713.274 751.027 709.907 751.582 706.595 C 752.859 698.955 755.56 691.629 759.538 685.006 C 763.46 678.512 768.473 672.758 774.356 667.985 C 780.276 663.194 786.936 659.42 794.096 656.83 C 801.348 654.203 808.989 652.852 816.703 652.852 C 820.274 652.852 823.844 653.148 827.359 653.722 C 835.167 655.035 842.696 657.699 849.578 661.621 C 856.331 665.432 862.38 670.353 867.505 676.181 C 872.555 681.916 876.589 688.465 879.419 695.569 C 882.25 702.692 883.711 710.277 883.73 717.917 C 883.73 721.192 883.452 724.448 882.916 727.667 C 882.509 730.165 881.695 732.607 880.511 734.845 C 879.31 737.018 878 739.158 876.293 740.951 C 875.25 742.047 873.125 743.828 871.286 744.494 C 869.731 745.141 868.067 745.489 866.381 745.52 C 864.699 745.551 863.024 745.266 861.445 744.681 C 859.859 744.089 858.401 743.199 857.149 742.062 L 847.422 732.335 L 856.929 722.828 L 856.929 722.828 C 858.947 720.783 860.541 718.359 861.621 715.698 C 862.682 713.076 863.226 710.278 863.225 707.452 C 863.226 704.626 862.682 701.825 861.622 699.205 C 860.52 696.491 858.884 694.025 856.811 691.955 C 854.74 689.882 852.274 688.246 849.559 687.142 C 846.939 686.083 844.138 685.538 841.312 685.539 C 838.487 685.539 835.688 686.083 833.067 687.143 C 830.406 688.224 827.982 689.819 825.936 691.836 L 825.936 691.835 L 825.823 691.948 L 825.823 691.948 L 822.944 694.827 L 822.951 694.834 L 822.951 694.834 L 822.951 694.834 L 822.951 694.834 L 822.951 694.834 L 822.951 694.834 L 822.951 694.834 L 822.951 694.834 C 822.16 695.602 821.713 696.625 821.713 697.835 L 821.713 697.835 C 821.713 700.217 823.648 702.151 826.03 702.151 C 827.201 702.151 828.264 701.684 829.042 700.925 L 829.048 700.931 L 831.923 698.057 L 831.923 698.057 C 831.924 698.055 831.925 698.054 831.926 698.053 C 831.93 698.049 831.934 698.046 831.938 698.042 C 833.187 696.794 834.675 695.809 836.311 695.144 C 837.9 694.501 839.598 694.171 841.313 694.172 C 843.027 694.172 844.726 694.5 846.316 695.144 C 847.958 695.811 849.453 696.803 850.706 698.059 C 851.962 699.312 852.953 700.806 853.622 702.449 C 854.264 704.039 854.594 705.738 854.592 707.451 C 854.594 709.166 854.264 710.865 853.621 712.454 C 852.954 714.097 851.963 715.589 850.708 716.841 L 850.708 716.841 L 841.318 726.231 L 807.131 692.045 C 807.118 692.031 807.105 692.017 807.091 692.004 C 807.054 691.967 807.017 691.93 806.98 691.893 L 806.844 691.757 L 806.842 691.758 C 804.823 689.8 802.444 688.248 799.837 687.189 C 797.217 686.129 794.416 685.585 791.59 685.586 C 788.764 685.585 785.966 686.129 783.346 687.189 C 780.631 688.292 778.165 689.928 776.094 692.001 C 774.021 694.072 772.385 696.538 771.283 699.252 C 770.223 701.872 769.677 704.671 769.679 707.497 C 769.677 710.323 770.223 713.123 771.283 715.743 C 772.342 718.351 773.893 720.73 775.852 722.748 L 775.851 722.75 L 775.973 722.871 C 776.014 722.913 776.056 722.955 776.098 722.997 L 776.099 722.996 L 813.279 760.006 L 813.282 760.003 C 814.073 760.888 815.223 761.447 816.503 761.447 C 817.628 761.447 818.438 761.169 819.475 760.272 Z  M 816.514 751.035 L 835.214 732.335 L 800.893 698.015 C 799.659 696.802 798.198 695.842 796.594 695.19 C 795.004 694.547 793.307 694.217 791.591 694.218 C 789.876 694.217 788.178 694.548 786.588 695.19 C 784.944 695.858 783.452 696.849 782.198 698.105 C 780.943 699.358 779.951 700.851 779.283 702.495 C 778.641 704.085 778.31 705.783 778.312 707.497 C 778.311 709.212 778.64 710.911 779.284 712.5 C 779.933 714.1 780.89 715.556 782.098 716.788 L 782.098 716.788 L 782.098 716.788 L 782.098 716.788 L 782.098 716.788 L 782.098 716.788 L 816.514 751.035 Q 816.079 750.975 816.514 751.035 Z " fill-rule="evenodd" fill="rgb(111,196,78)"/></g></svg>