<?xml version="1.0" standalone="no"?><!-- Generator: Gravit.io --><svg xmlns="http://www.w3.org/2000/svg" xmlns:xlink="http://www.w3.org/1999/xlink" style="isolation:isolate" viewBox="386 593.047 250 250" width="250" height="250"><g><path d=" M 513.235 760.272 L 513.235 760.272 L 513.241 760.277 L 513.241 760.277 L 513.241 760.277 L 513.241 760.277 L 535.078 738.44 L 544.959 748.32 L 544.959 748.32 L 545.087 748.448 L 545.093 748.443 C 547.162 750.324 549.572 751.794 552.193 752.771 C 554.785 753.735 557.536 754.202 560.302 754.151 C 563.072 754.101 565.808 753.528 568.367 752.464 C 570.635 751.422 574.024 749.301 576.147 746.884 C 578.3 744.434 580.184 741.746 581.745 738.897 C 583.392 735.807 584.501 732.496 585.075 729.055 C 585.686 725.373 586 721.654 586 717.917 C 585.981 709.185 584.317 700.546 581.079 692.424 C 577.897 684.413 573.346 677.013 567.648 670.557 C 561.913 664.026 555.105 658.495 547.538 654.203 C 539.786 649.818 531.313 646.803 522.507 645.341 C 518.53 644.675 514.497 644.342 510.463 644.342 C 501.768 644.36 493.147 645.877 484.97 648.838 C 476.923 651.742 469.411 655.979 462.77 661.381 C 456.11 666.764 450.43 673.276 446.009 680.602 C 441.476 688.169 438.387 696.494 436.944 705.189 C 436.315 708.982 436 712.811 436 716.641 C 436.019 725.447 437.647 734.161 440.773 742.393 C 443.863 750.533 448.303 758.1 453.89 764.779 C 459.495 771.476 466.211 777.174 473.722 781.632 C 481.4 786.183 489.854 789.291 498.642 790.771 C 502.619 791.419 506.634 791.752 510.649 791.752 C 526.725 791.752 542.358 786.387 555.068 776.545 C 555.956 775.86 556.548 774.843 556.696 773.733 C 556.825 772.604 556.529 771.476 555.826 770.588 C 555.142 769.7 554.124 769.108 553.014 768.96 C 551.886 768.83 550.757 769.126 549.869 769.829 C 538.639 778.506 524.838 783.242 510.649 783.242 C 507.096 783.242 503.544 782.946 500.048 782.372 C 492.296 781.059 484.841 778.339 478.07 774.325 C 471.372 770.347 465.415 765.278 460.42 759.302 C 455.425 753.364 451.485 746.63 448.728 739.378 C 445.953 732.107 444.529 724.411 444.51 716.641 C 444.51 713.274 444.788 709.907 445.343 706.595 C 446.619 698.955 449.32 691.629 453.298 685.006 C 457.22 678.512 462.233 672.758 468.116 667.985 C 474.036 663.194 480.697 659.42 487.856 656.83 C 495.108 654.203 502.749 652.852 510.463 652.852 C 514.034 652.852 517.605 653.148 521.12 653.722 C 528.927 655.035 536.456 657.699 543.338 661.621 C 550.091 665.432 556.141 670.353 561.265 676.181 C 566.316 681.916 570.349 688.465 573.179 695.569 C 576.01 702.692 577.471 710.277 577.49 717.917 C 577.49 721.192 577.212 724.448 576.676 727.667 C 576.269 730.165 575.455 732.607 574.271 734.845 C 573.07 737.018 571.76 739.158 570.054 740.951 C 569.01 742.047 566.885 743.828 565.046 744.494 C 563.491 745.141 561.827 745.489 560.141 745.52 C 558.459 745.551 556.784 745.266 555.205 744.681 C 553.619 744.089 552.161 743.199 550.909 742.062 L 541.182 732.335 L 550.689 722.828 L 550.689 722.828 C 552.707 720.783 554.301 718.359 555.381 715.698 C 556.442 713.076 556.986 710.278 556.985 707.452 C 556.986 704.626 556.442 701.825 555.382 699.205 C 554.28 696.491 552.644 694.025 550.571 691.955 C 548.5 689.882 546.034 688.246 543.319 687.142 C 540.699 686.083 537.899 685.538 535.073 685.539 C 532.247 685.539 529.448 686.083 526.827 687.143 C 524.166 688.224 521.743 689.819 519.696 691.836 L 519.696 691.835 L 519.583 691.948 L 519.583 691.948 L 516.704 694.827 L 516.711 694.834 L 516.711 694.834 L 516.711 694.834 L 516.711 694.834 L 516.711 694.834 L 516.711 694.834 L 516.711 694.834 L 516.711 694.834 C 515.92 695.602 515.474 696.625 515.474 697.835 L 515.474 697.835 C 515.474 700.217 517.408 702.151 519.79 702.151 C 520.961 702.151 522.024 701.684 522.802 700.925 L 522.808 700.931 L 525.683 698.057 L 525.683 698.057 C 525.684 698.055 525.685 698.054 525.686 698.053 C 525.69 698.049 525.694 698.046 525.698 698.042 C 526.947 696.794 528.435 695.809 530.071 695.144 C 531.66 694.501 533.358 694.171 535.074 694.172 C 536.788 694.172 538.486 694.5 540.077 695.144 C 541.719 695.811 543.213 696.803 544.467 698.059 C 545.722 699.312 546.713 700.806 547.382 702.449 C 548.024 704.039 548.354 705.738 548.353 707.451 C 548.354 709.166 548.024 710.865 547.381 712.454 C 546.714 714.097 545.723 715.589 544.468 716.841 L 544.468 716.841 L 535.078 726.231 L 500.892 692.045 C 500.878 692.031 500.865 692.017 500.851 692.004 C 500.814 691.967 500.777 691.93 500.74 691.893 L 500.604 691.757 L 500.602 691.758 C 498.583 689.8 496.204 688.248 493.597 687.189 C 490.977 686.129 488.177 685.585 485.35 685.586 C 482.524 685.585 479.726 686.129 477.106 687.189 C 474.391 688.292 471.925 689.928 469.854 692.001 C 467.781 694.072 466.146 696.538 465.043 699.252 C 463.983 701.872 463.438 704.671 463.439 707.497 C 463.438 710.323 463.983 713.123 465.043 715.743 C 466.102 718.351 467.653 720.73 469.613 722.748 L 469.611 722.75 L 469.733 722.871 C 469.774 722.913 469.816 722.955 469.858 722.997 L 469.859 722.996 L 507.039 760.006 L 507.042 760.003 C 507.833 760.888 508.983 761.447 510.263 761.447 C 511.388 761.447 512.198 761.169 513.235 760.272 Z  M 510.274 751.035 L 528.974 732.335 L 494.654 698.015 C 493.42 696.802 491.958 695.842 490.355 695.19 C 488.764 694.547 487.067 694.217 485.352 694.218 C 483.636 694.217 481.938 694.548 480.349 695.19 C 478.704 695.858 477.212 696.849 475.959 698.105 C 474.704 699.358 473.711 700.851 473.043 702.495 C 472.401 704.085 472.07 705.783 472.073 707.497 C 472.071 709.212 472.4 710.911 473.044 712.5 C 473.693 714.1 474.65 715.556 475.858 716.788 L 475.858 716.788 L 475.858 716.788 L 475.858 716.788 L 475.858 716.788 L 475.858 716.788 L 510.274 751.035 Q 509.839 750.975 510.274 751.035 Z " fill-rule="evenodd" fill="rgb(111,196,78)"/></g></svg>