<?xml version="1.0" standalone="no"?><!-- Generator: Gravit.io --><svg xmlns="http://www.w3.org/2000/svg" xmlns:xlink="http://www.w3.org/1999/xlink" style="isolation:isolate" viewBox="386 284 250 250" width="250" height="250"><g><path d=" M 513.235 451.225 L 513.235 451.225 L 513.241 451.23 L 513.241 451.23 L 513.241 451.23 L 513.241 451.23 L 535.078 429.393 L 544.959 439.273 L 544.959 439.273 L 545.087 439.401 L 545.093 439.396 C 547.162 441.277 549.572 442.747 552.193 443.724 C 554.785 444.688 557.536 445.155 560.302 445.104 C 563.072 445.054 565.808 444.481 568.367 443.417 C 570.635 442.375 574.024 440.254 576.147 437.837 C 578.3 435.387 580.184 432.699 581.745 429.85 C 583.392 426.76 584.501 423.449 585.075 420.008 C 585.686 416.326 586 412.608 586 408.87 C 585.981 400.138 584.317 391.499 581.079 383.377 C 577.897 375.367 573.346 367.966 567.648 361.51 C 561.913 354.979 555.105 349.448 547.538 345.156 C 539.786 340.771 531.313 337.756 522.507 336.294 C 518.53 335.628 514.497 335.295 510.463 335.295 C 501.768 335.314 493.147 336.831 484.97 339.791 C 476.923 342.695 469.411 346.932 462.77 352.334 C 456.11 357.717 450.43 364.229 446.009 371.556 C 441.476 379.122 438.387 387.447 436.944 396.142 C 436.315 399.935 436 403.764 436 407.594 C 436.019 416.4 437.647 425.114 440.773 433.346 C 443.863 441.486 448.303 449.053 453.89 455.732 C 459.495 462.429 466.211 468.127 473.722 472.585 C 481.4 477.136 489.854 480.244 498.642 481.724 C 502.619 482.372 506.634 482.705 510.649 482.705 C 526.725 482.705 542.358 477.34 555.068 467.498 C 555.956 466.813 556.548 465.796 556.696 464.686 C 556.825 463.557 556.529 462.429 555.826 461.541 C 555.142 460.653 554.124 460.061 553.014 459.913 C 551.886 459.783 550.757 460.079 549.869 460.782 C 538.639 469.459 524.838 474.195 510.649 474.195 C 507.096 474.195 503.544 473.899 500.048 473.325 C 492.296 472.012 484.841 469.292 478.07 465.278 C 471.372 461.3 465.415 456.231 460.42 450.256 C 455.425 444.317 451.485 437.583 448.728 430.331 C 445.953 423.06 444.529 415.364 444.51 407.594 C 444.51 404.227 444.788 400.86 445.343 397.548 C 446.619 389.908 449.32 382.582 453.298 375.959 C 457.22 369.465 462.233 363.711 468.116 358.938 C 474.036 354.147 480.697 350.373 487.856 347.783 C 495.108 345.156 502.749 343.805 510.463 343.805 C 514.034 343.805 517.605 344.101 521.12 344.675 C 528.927 345.988 536.456 348.652 543.338 352.574 C 550.091 356.385 556.141 361.306 561.265 367.134 C 566.316 372.869 570.349 379.418 573.179 386.522 C 576.01 393.645 577.471 401.23 577.49 408.87 C 577.49 412.145 577.212 415.401 576.676 418.62 C 576.269 421.118 575.455 423.56 574.271 425.798 C 573.07 427.971 571.76 430.111 570.054 431.904 C 569.01 433 566.885 434.781 565.046 435.447 C 563.491 436.094 561.827 436.442 560.141 436.473 C 558.459 436.504 556.784 436.219 555.205 435.634 C 553.619 435.042 552.161 434.152 550.909 433.015 L 541.182 423.288 L 550.689 413.781 L 550.689 413.781 C 552.707 411.736 554.301 409.312 555.381 406.651 C 556.442 404.029 556.986 401.231 556.985 398.405 C 556.986 395.579 556.442 392.778 555.382 390.158 C 554.28 387.444 552.644 384.978 550.571 382.908 C 548.5 380.835 546.034 379.199 543.319 378.095 C 540.699 377.036 537.899 376.491 535.073 376.492 C 532.247 376.492 529.448 377.036 526.827 378.097 C 524.166 379.177 521.743 380.772 519.696 382.789 L 519.696 382.788 L 519.583 382.901 L 519.583 382.901 L 516.704 385.78 L 516.711 385.787 L 516.711 385.787 L 516.711 385.787 L 516.711 385.787 L 516.711 385.787 L 516.711 385.787 L 516.711 385.787 L 516.711 385.787 C 515.92 386.555 515.474 387.578 515.474 388.788 L 515.474 388.788 C 515.474 391.17 517.408 393.104 519.79 393.104 C 520.961 393.104 522.024 392.637 522.802 391.878 L 522.808 391.884 L 525.683 389.01 L 525.683 389.01 C 525.684 389.008 525.685 389.007 525.686 389.006 C 525.69 389.002 525.694 388.999 525.698 388.995 C 526.947 387.747 528.435 386.762 530.071 386.097 C 531.66 385.455 533.358 385.124 535.074 385.125 C 536.788 385.125 538.486 385.453 540.077 386.097 C 541.719 386.764 543.213 387.756 544.467 389.012 C 545.722 390.265 546.713 391.759 547.382 393.402 C 548.024 394.992 548.354 396.691 548.353 398.404 C 548.354 400.119 548.024 401.819 547.381 403.407 C 546.714 405.05 545.723 406.542 544.468 407.795 L 544.468 407.795 L 535.078 417.184 L 500.892 382.998 C 500.878 382.984 500.865 382.97 500.851 382.957 C 500.814 382.92 500.777 382.883 500.74 382.846 L 500.604 382.71 L 500.602 382.711 C 498.583 380.753 496.204 379.202 493.597 378.142 C 490.977 377.082 488.177 376.538 485.35 376.539 C 482.524 376.538 479.726 377.082 477.106 378.142 C 474.391 379.245 471.925 380.881 469.854 382.954 C 467.781 385.025 466.146 387.491 465.043 390.205 C 463.983 392.825 463.438 395.624 463.439 398.45 C 463.438 401.276 463.983 404.076 465.043 406.696 C 466.102 409.304 467.653 411.683 469.613 413.701 L 469.611 413.703 L 469.733 413.824 C 469.774 413.866 469.816 413.908 469.858 413.95 L 469.859 413.949 L 507.039 450.959 L 507.042 450.956 C 507.833 451.842 508.983 452.4 510.263 452.4 C 511.388 452.4 512.198 452.122 513.235 451.225 Z  M 510.274 441.988 L 528.974 423.288 L 494.654 388.968 C 493.42 387.755 491.958 386.795 490.355 386.143 C 488.764 385.5 487.067 385.17 485.352 385.171 C 483.636 385.17 481.938 385.501 480.349 386.143 C 478.704 386.811 477.212 387.802 475.959 389.058 C 474.704 390.311 473.711 391.804 473.043 393.449 C 472.401 395.038 472.07 396.736 472.073 398.45 C 472.071 400.166 472.4 401.864 473.044 403.453 C 473.693 405.053 474.65 406.509 475.858 407.741 L 475.858 407.741 L 475.858 407.741 L 475.858 407.741 L 475.858 407.741 L 475.858 407.741 L 510.274 441.988 Q 509.839 441.928 510.274 441.988 Z " fill-rule="evenodd" fill="rgb(102,109,112)"/></g></svg>