<?xml version="1.0" standalone="no"?><!-- Generator: Gravit.io --><svg xmlns="http://www.w3.org/2000/svg" xmlns:xlink="http://www.w3.org/1999/xlink" style="isolation:isolate" viewBox="692.24 284 250 250" width="250" height="250"><g><path d="M 692.24 534 L 692.24 284 C 692.24 284 692.24 284 692.24 284 L 942.24 284 C 942.24 284 942.24 284 942.24 284 L 942.24 534 C 942.24 534 942.24 534 942.24 534 L 692.24 534 C 692.24 534 692.24 534 692.24 534 Z" style="stroke:none;fill:#FFFFFF;stroke-miterlimit:10;"/><path d=" M 819.475 451.225 L 819.475 451.225 L 819.48 451.23 L 819.48 451.23 L 819.48 451.23 L 819.48 451.23 L 841.318 429.393 L 851.199 439.273 L 851.199 439.273 L 851.327 439.401 L 851.332 439.396 C 853.401 441.277 855.811 442.747 858.433 443.724 C 861.025 444.688 863.776 445.155 866.542 445.104 C 869.312 445.054 872.048 444.481 874.607 443.417 C 876.875 442.375 880.263 440.254 882.387 437.837 C 884.54 435.387 886.424 432.699 887.985 429.85 C 889.631 426.76 890.741 423.449 891.315 420.008 C 891.925 416.326 892.24 412.608 892.24 408.87 C 892.221 400.138 890.556 391.499 887.319 383.377 C 884.137 375.367 879.586 367.966 873.888 361.51 C 868.152 354.979 861.344 349.448 853.778 345.156 C 846.026 340.771 837.553 337.756 828.747 336.294 C 824.769 335.628 820.736 335.295 816.703 335.295 C 808.008 335.314 799.387 336.831 791.21 339.791 C 783.162 342.695 775.651 346.932 769.01 352.334 C 762.35 357.717 756.67 364.229 752.248 371.556 C 747.716 379.122 744.626 387.447 743.183 396.142 C 742.554 399.935 742.24 403.764 742.24 407.594 C 742.258 416.4 743.886 425.114 747.013 433.346 C 750.102 441.486 754.542 449.053 760.13 455.732 C 765.735 462.429 772.451 468.127 779.962 472.585 C 787.639 477.136 796.094 480.244 804.882 481.724 C 808.859 482.372 812.874 482.705 816.888 482.705 C 832.965 482.705 848.598 477.34 861.307 467.498 C 862.195 466.813 862.787 465.796 862.935 464.686 C 863.065 463.557 862.769 462.429 862.066 461.541 C 861.381 460.653 860.364 460.061 859.254 459.913 C 858.125 459.783 856.997 460.079 856.109 460.782 C 844.879 469.459 831.078 474.195 816.888 474.195 C 813.336 474.195 809.784 473.899 806.288 473.325 C 798.536 472.012 791.08 469.292 784.309 465.278 C 777.612 461.3 771.655 456.231 766.66 450.256 C 761.665 444.317 757.724 437.583 754.968 430.331 C 752.193 423.06 750.768 415.364 750.75 407.594 C 750.75 404.227 751.027 400.86 751.582 397.548 C 752.859 389.908 755.56 382.582 759.538 375.959 C 763.46 369.465 768.473 363.711 774.356 358.938 C 780.276 354.147 786.936 350.373 794.096 347.783 C 801.348 345.156 808.989 343.805 816.703 343.805 C 820.274 343.805 823.844 344.101 827.359 344.675 C 835.167 345.988 842.696 348.652 849.578 352.574 C 856.331 356.385 862.38 361.306 867.505 367.134 C 872.555 372.869 876.589 379.418 879.419 386.522 C 882.25 393.645 883.711 401.23 883.73 408.87 C 883.73 412.145 883.452 415.401 882.916 418.62 C 882.509 421.118 881.695 423.56 880.511 425.798 C 879.31 427.971 878 430.111 876.293 431.904 C 875.25 433 873.125 434.781 871.286 435.447 C 869.731 436.094 868.067 436.442 866.381 436.473 C 864.699 436.504 863.024 436.219 861.445 435.634 C 859.859 435.042 858.401 434.152 857.149 433.015 L 847.422 423.288 L 856.929 413.781 L 856.929 413.781 C 858.947 411.736 860.541 409.312 861.621 406.651 C 862.682 404.029 863.226 401.231 863.225 398.405 C 863.226 395.579 862.682 392.778 861.622 390.158 C 860.52 387.444 858.884 384.978 856.811 382.908 C 854.74 380.835 852.274 379.199 849.559 378.095 C 846.939 377.036 844.138 376.491 841.312 376.492 C 838.487 376.492 835.688 377.036 833.067 378.097 C 830.406 379.177 827.982 380.772 825.936 382.789 L 825.936 382.788 L 825.823 382.901 L 825.823 382.901 L 822.944 385.78 L 822.951 385.787 L 822.951 385.787 L 822.951 385.787 L 822.951 385.787 L 822.951 385.787 L 822.951 385.787 L 822.951 385.787 L 822.951 385.787 C 822.16 386.555 821.713 387.578 821.713 388.788 L 821.713 388.788 C 821.713 391.17 823.648 393.104 826.03 393.104 C 827.201 393.104 828.264 392.637 829.042 391.878 L 829.048 391.884 L 831.923 389.01 L 831.923 389.01 C 831.924 389.008 831.925 389.007 831.926 389.006 C 831.93 389.002 831.934 388.999 831.938 388.995 C 833.187 387.747 834.675 386.762 836.311 386.097 C 837.9 385.455 839.598 385.124 841.313 385.125 C 843.027 385.125 844.726 385.453 846.316 386.097 C 847.958 386.764 849.453 387.756 850.706 389.012 C 851.962 390.265 852.953 391.759 853.622 393.402 C 854.264 394.992 854.594 396.691 854.592 398.404 C 854.594 400.119 854.264 401.819 853.621 403.407 C 852.954 405.05 851.963 406.542 850.708 407.795 L 850.708 407.795 L 841.318 417.184 L 807.131 382.998 C 807.118 382.984 807.105 382.97 807.091 382.957 C 807.054 382.92 807.017 382.883 806.98 382.846 L 806.844 382.71 L 806.842 382.711 C 804.823 380.753 802.444 379.202 799.837 378.142 C 797.217 377.082 794.416 376.538 791.59 376.539 C 788.764 376.538 785.966 377.082 783.346 378.142 C 780.631 379.245 778.165 380.881 776.094 382.954 C 774.021 385.025 772.385 387.491 771.283 390.205 C 770.223 392.825 769.677 395.624 769.679 398.45 C 769.677 401.276 770.223 404.076 771.283 406.696 C 772.342 409.304 773.893 411.683 775.852 413.701 L 775.851 413.703 L 775.973 413.824 C 776.014 413.866 776.056 413.908 776.098 413.95 L 776.099 413.949 L 813.279 450.959 L 813.282 450.956 C 814.073 451.842 815.223 452.4 816.503 452.4 C 817.628 452.4 818.438 452.122 819.475 451.225 Z  M 816.514 441.988 L 835.214 423.288 L 800.893 388.968 C 799.659 387.755 798.198 386.795 796.594 386.143 C 795.004 385.5 793.307 385.17 791.591 385.171 C 789.876 385.17 788.178 385.501 786.588 386.143 C 784.944 386.811 783.452 387.802 782.198 389.058 C 780.943 390.311 779.951 391.804 779.283 393.449 C 778.641 395.038 778.31 396.736 778.312 398.45 C 778.311 400.166 778.64 401.864 779.284 403.453 C 779.933 405.053 780.89 406.509 782.098 407.741 L 782.098 407.741 L 782.098 407.741 L 782.098 407.741 L 782.098 407.741 L 782.098 407.741 L 816.514 441.988 Q 816.079 441.928 816.514 441.988 Z " fill-rule="evenodd" fill="rgb(102,109,112)"/></g></svg>