<?xml version="1.0" standalone="no"?><!-- Generator: Gravit.io --><svg xmlns="http://www.w3.org/2000/svg" xmlns:xlink="http://www.w3.org/1999/xlink" style="isolation:isolate" viewBox="692.24 902.094 250 250" width="250" height="250"><g><path d="M 692.24 1152.094 L 692.24 902.094 C 692.24 902.094 692.24 902.094 692.24 902.094 L 942.24 902.094 C 942.24 902.094 942.24 902.094 942.24 902.094 L 942.24 1152.094 C 942.24 1152.094 942.24 1152.094 942.24 1152.094 L 692.24 1152.094 C 692.24 1152.094 692.24 1152.094 692.24 1152.094 Z" style="stroke:none;fill:#FFFFFF;stroke-miterlimit:10;"/><path d=" M 819.475 1069.52 L 819.475 1069.52 L 819.48 1069.525 L 819.48 1069.525 L 819.48 1069.525 L 819.48 1069.525 L 841.318 1047.688 L 851.199 1057.568 L 851.199 1057.568 L 851.327 1057.696 L 851.332 1057.691 C 853.401 1059.572 855.811 1061.042 858.433 1062.019 C 861.025 1062.983 863.776 1063.45 866.542 1063.399 C 869.312 1063.349 872.048 1062.776 874.607 1061.712 C 876.875 1060.67 880.263 1058.549 882.387 1056.132 C 884.54 1053.682 886.424 1050.994 887.985 1048.145 C 889.631 1045.055 890.741 1041.744 891.315 1038.303 C 891.925 1034.621 892.24 1030.903 892.24 1027.166 C 892.221 1018.433 890.556 1009.794 887.319 1001.672 C 884.137 993.662 879.586 986.261 873.888 979.805 C 868.152 973.274 861.344 967.743 853.778 963.451 C 846.026 959.066 837.553 956.051 828.747 954.589 C 824.769 953.923 820.736 953.59 816.703 953.59 C 808.008 953.609 799.387 955.126 791.21 958.086 C 783.162 960.99 775.651 965.227 769.01 970.629 C 762.35 976.012 756.67 982.524 752.248 989.851 C 747.716 997.417 744.626 1005.742 743.183 1014.437 C 742.554 1018.23 742.24 1022.059 742.24 1025.889 C 742.258 1034.695 743.886 1043.409 747.013 1051.641 C 750.102 1059.781 754.542 1067.348 760.13 1074.027 C 765.735 1080.724 772.451 1086.422 779.962 1090.88 C 787.639 1095.431 796.094 1098.539 804.882 1100.019 C 808.859 1100.667 812.874 1101 816.888 1101 C 832.965 1101 848.598 1095.635 861.307 1085.793 C 862.195 1085.108 862.787 1084.091 862.935 1082.981 C 863.065 1081.852 862.769 1080.724 862.066 1079.836 C 861.381 1078.948 860.364 1078.356 859.254 1078.208 C 858.125 1078.078 856.997 1078.374 856.109 1079.077 C 844.879 1087.754 831.078 1092.49 816.888 1092.49 C 813.336 1092.49 809.784 1092.194 806.288 1091.62 C 798.536 1090.307 791.08 1087.587 784.309 1083.573 C 777.612 1079.595 771.655 1074.526 766.66 1068.551 C 761.665 1062.612 757.724 1055.878 754.968 1048.626 C 752.193 1041.355 750.768 1033.659 750.75 1025.889 C 750.75 1022.522 751.027 1019.155 751.582 1015.843 C 752.859 1008.203 755.56 1000.877 759.538 994.254 C 763.46 987.76 768.473 982.006 774.356 977.233 C 780.276 972.442 786.936 968.668 794.096 966.078 C 801.348 963.451 808.989 962.1 816.703 962.1 C 820.274 962.1 823.844 962.396 827.359 962.97 C 835.167 964.283 842.696 966.947 849.578 970.869 C 856.331 974.68 862.38 979.601 867.505 985.429 C 872.555 991.164 876.589 997.713 879.419 1004.817 C 882.25 1011.94 883.711 1019.525 883.73 1027.166 C 883.73 1030.44 883.452 1033.696 882.916 1036.915 C 882.509 1039.413 881.695 1041.855 880.511 1044.093 C 879.31 1046.266 878 1048.406 876.293 1050.199 C 875.25 1051.295 873.125 1053.076 871.286 1053.742 C 869.731 1054.389 868.067 1054.737 866.381 1054.768 C 864.699 1054.799 863.024 1054.514 861.445 1053.929 C 859.859 1053.337 858.401 1052.447 857.149 1051.31 L 847.422 1041.583 L 856.929 1032.077 L 856.929 1032.076 C 858.947 1030.031 860.541 1027.607 861.621 1024.946 C 862.682 1022.325 863.226 1019.526 863.225 1016.7 C 863.226 1013.874 862.682 1011.073 861.622 1008.453 C 860.52 1005.74 858.884 1003.273 856.811 1001.203 C 854.74 999.13 852.274 997.494 849.559 996.39 C 846.939 995.331 844.138 994.786 841.312 994.787 C 838.487 994.787 835.688 995.331 833.067 996.392 C 830.406 997.472 827.982 999.067 825.936 1001.084 L 825.936 1001.083 L 825.823 1001.196 L 825.823 1001.196 L 822.944 1004.075 L 822.951 1004.082 L 822.951 1004.082 L 822.951 1004.082 L 822.951 1004.082 L 822.951 1004.082 L 822.951 1004.082 L 822.951 1004.082 L 822.951 1004.082 C 822.16 1004.85 821.713 1005.873 821.713 1007.083 L 821.713 1007.083 C 821.713 1009.465 823.648 1011.399 826.03 1011.399 C 827.201 1011.399 828.264 1010.932 829.042 1010.173 L 829.048 1010.179 L 831.923 1007.305 L 831.923 1007.305 C 831.924 1007.303 831.925 1007.302 831.926 1007.301 C 831.93 1007.297 831.934 1007.294 831.938 1007.29 C 833.187 1006.042 834.675 1005.057 836.311 1004.392 C 837.9 1003.75 839.598 1003.419 841.313 1003.42 C 843.027 1003.42 844.726 1003.748 846.316 1004.392 C 847.958 1005.06 849.453 1006.051 850.706 1007.307 C 851.962 1008.56 852.953 1010.054 853.622 1011.697 C 854.264 1013.287 854.594 1014.986 854.592 1016.699 C 854.594 1018.414 854.264 1020.114 853.621 1021.702 C 852.954 1023.345 851.963 1024.837 850.708 1026.09 L 850.708 1026.09 L 841.318 1035.479 L 807.131 1001.293 C 807.118 1001.279 807.105 1001.265 807.091 1001.252 C 807.054 1001.215 807.017 1001.178 806.98 1001.141 L 806.844 1001.005 L 806.842 1001.006 C 804.823 999.048 802.444 997.497 799.837 996.437 C 797.217 995.377 794.416 994.833 791.59 994.834 C 788.764 994.833 785.966 995.377 783.346 996.437 C 780.631 997.54 778.165 999.176 776.094 1001.249 C 774.021 1003.32 772.385 1005.786 771.283 1008.5 C 770.223 1011.12 769.677 1013.919 769.679 1016.745 C 769.677 1019.572 770.223 1022.371 771.283 1024.991 C 772.342 1027.599 773.893 1029.978 775.852 1031.996 L 775.851 1031.998 L 775.973 1032.119 C 776.014 1032.161 776.056 1032.203 776.098 1032.245 L 776.099 1032.244 L 813.279 1069.254 L 813.282 1069.251 C 814.073 1070.137 815.223 1070.695 816.503 1070.695 C 817.628 1070.695 818.438 1070.417 819.475 1069.52 Z  M 816.514 1060.283 L 835.214 1041.583 L 800.893 1007.263 C 799.659 1006.05 798.198 1005.09 796.594 1004.438 C 795.004 1003.795 793.307 1003.465 791.591 1003.466 C 789.876 1003.465 788.178 1003.796 786.588 1004.438 C 784.944 1005.106 783.452 1006.097 782.198 1007.353 C 780.943 1008.606 779.951 1010.099 779.283 1011.744 C 778.641 1013.333 778.31 1015.031 778.312 1016.745 C 778.311 1018.461 778.64 1020.159 779.284 1021.748 C 779.933 1023.348 780.89 1024.804 782.098 1026.036 L 782.098 1026.036 L 782.098 1026.036 L 782.098 1026.036 L 782.098 1026.036 L 782.098 1026.036 L 816.514 1060.283 Q 816.079 1060.223 816.514 1060.283 Z " fill-rule="evenodd" fill="rgb(244,84,124)"/></g></svg>