<?xml version="1.0" standalone="no"?><!-- Generator: Gravit.io --><svg xmlns="http://www.w3.org/2000/svg" xmlns:xlink="http://www.w3.org/1999/xlink" style="isolation:isolate" viewBox="386 902.094 250 250" width="250" height="250"><g><path d=" M 513.235 1069.319 L 513.235 1069.319 L 513.241 1069.324 L 513.241 1069.324 L 513.241 1069.324 L 513.241 1069.324 L 535.078 1047.486 L 544.959 1057.367 L 544.959 1057.367 L 545.087 1057.495 L 545.093 1057.49 C 547.162 1059.371 549.572 1060.841 552.193 1061.818 C 554.785 1062.781 557.536 1063.249 560.302 1063.198 C 563.072 1063.148 565.808 1062.575 568.367 1061.511 C 570.635 1060.469 574.024 1058.348 576.147 1055.931 C 578.3 1053.481 580.184 1050.793 581.745 1047.944 C 583.392 1044.854 584.501 1041.543 585.075 1038.102 C 585.686 1034.42 586 1030.701 586 1026.964 C 585.981 1018.232 584.317 1009.593 581.079 1001.471 C 577.897 993.46 573.346 986.06 567.648 979.604 C 561.913 973.073 555.105 967.542 547.538 963.25 C 539.786 958.865 531.313 955.849 522.507 954.388 C 518.53 953.722 514.497 953.389 510.463 953.389 C 501.768 953.407 493.147 954.924 484.97 957.884 C 476.923 960.789 469.411 965.026 462.77 970.428 C 456.11 975.811 450.43 982.323 446.009 989.649 C 441.476 997.216 438.387 1005.541 436.944 1014.236 C 436.315 1018.029 436 1021.858 436 1025.688 C 436.019 1034.494 437.647 1043.208 440.773 1051.44 C 443.863 1059.58 448.303 1067.147 453.89 1073.825 C 459.495 1080.523 466.211 1086.221 473.722 1090.679 C 481.4 1095.23 489.854 1098.338 498.642 1099.818 C 502.619 1100.466 506.634 1100.799 510.649 1100.799 C 526.725 1100.799 542.358 1095.434 555.068 1085.592 C 555.956 1084.907 556.548 1083.89 556.696 1082.78 C 556.825 1081.651 556.529 1080.523 555.826 1079.635 C 555.142 1078.747 554.124 1078.155 553.014 1078.007 C 551.886 1077.877 550.757 1078.173 549.869 1078.876 C 538.639 1087.553 524.838 1092.289 510.649 1092.289 C 507.096 1092.289 503.544 1091.993 500.048 1091.419 C 492.296 1090.106 484.841 1087.386 478.07 1083.372 C 471.372 1079.394 465.415 1074.325 460.42 1068.349 C 455.425 1062.411 451.485 1055.677 448.728 1048.425 C 445.953 1041.154 444.529 1033.458 444.51 1025.688 C 444.51 1022.321 444.788 1018.954 445.343 1015.642 C 446.619 1008.002 449.32 1000.676 453.298 994.052 C 457.22 987.559 462.233 981.805 468.116 977.032 C 474.036 972.241 480.697 968.467 487.856 965.877 C 495.108 963.25 502.749 961.899 510.463 961.899 C 514.034 961.899 517.605 962.195 521.12 962.769 C 528.927 964.082 536.456 966.746 543.338 970.668 C 550.091 974.479 556.141 979.4 561.265 985.228 C 566.316 990.963 570.349 997.512 573.179 1004.616 C 576.01 1011.739 577.471 1019.324 577.49 1026.964 C 577.49 1030.239 577.212 1033.495 576.676 1036.714 C 576.269 1039.212 575.455 1041.654 574.271 1043.892 C 573.07 1046.065 571.76 1048.204 570.054 1049.998 C 569.01 1051.094 566.885 1052.875 565.046 1053.541 C 563.491 1054.188 561.827 1054.536 560.141 1054.566 C 558.459 1054.598 556.784 1054.313 555.205 1053.728 C 553.619 1053.136 552.161 1052.246 550.909 1051.109 L 541.182 1041.382 L 550.689 1031.875 L 550.689 1031.875 C 552.707 1029.83 554.301 1027.406 555.381 1024.744 C 556.442 1022.123 556.986 1019.325 556.985 1016.499 C 556.986 1013.673 556.442 1010.872 555.382 1008.252 C 554.28 1005.538 552.644 1003.072 550.571 1001.002 C 548.5 998.929 546.034 997.293 543.319 996.189 C 540.699 995.13 537.899 994.585 535.073 994.586 C 532.247 994.586 529.448 995.13 526.827 996.19 C 524.166 997.271 521.743 998.866 519.696 1000.883 L 519.696 1000.882 L 519.583 1000.995 L 519.583 1000.995 L 516.704 1003.874 L 516.711 1003.881 L 516.711 1003.881 L 516.711 1003.881 L 516.711 1003.881 L 516.711 1003.881 L 516.711 1003.881 L 516.711 1003.881 L 516.711 1003.881 C 515.92 1004.649 515.474 1005.672 515.474 1006.882 L 515.474 1006.882 C 515.474 1009.264 517.408 1011.198 519.79 1011.198 C 520.961 1011.198 522.024 1010.731 522.802 1009.972 L 522.808 1009.978 L 525.683 1007.103 L 525.683 1007.103 C 525.684 1007.102 525.685 1007.101 525.686 1007.1 C 525.69 1007.096 525.694 1007.092 525.698 1007.089 C 526.947 1005.841 528.435 1004.856 530.071 1004.191 C 531.66 1003.548 533.358 1003.218 535.074 1003.219 C 536.788 1003.219 538.486 1003.547 540.077 1004.191 C 541.719 1004.858 543.213 1005.85 544.467 1007.106 C 545.722 1008.358 546.713 1009.853 547.382 1011.496 C 548.024 1013.086 548.354 1014.785 548.353 1016.498 C 548.354 1018.213 548.024 1019.912 547.381 1021.501 C 546.714 1023.144 545.723 1024.636 544.468 1025.888 L 544.468 1025.888 L 535.078 1035.278 L 500.892 1001.092 C 500.878 1001.078 500.865 1001.064 500.851 1001.051 C 500.814 1001.014 500.777 1000.977 500.74 1000.94 L 500.604 1000.804 L 500.602 1000.805 C 498.583 998.847 496.204 997.295 493.597 996.236 C 490.977 995.176 488.177 994.631 485.35 994.633 C 482.524 994.631 479.726 995.176 477.106 996.236 C 474.391 997.339 471.925 998.975 469.854 1001.048 C 467.781 1003.119 466.146 1005.585 465.043 1008.299 C 463.983 1010.919 463.438 1013.718 463.439 1016.544 C 463.438 1019.37 463.983 1022.17 465.043 1024.79 C 466.102 1027.398 467.653 1029.777 469.613 1031.795 L 469.611 1031.797 L 469.733 1031.918 C 469.774 1031.96 469.816 1032.002 469.858 1032.044 L 469.859 1032.043 L 507.039 1069.052 L 507.042 1069.05 C 507.833 1069.935 508.983 1070.493 510.263 1070.493 C 511.388 1070.493 512.198 1070.216 513.235 1069.319 Z  M 510.274 1060.082 L 528.974 1041.382 L 494.654 1007.062 C 493.42 1005.848 491.958 1004.889 490.355 1004.237 C 488.764 1003.594 487.067 1003.264 485.352 1003.265 C 483.636 1003.264 481.938 1003.595 480.349 1004.237 C 478.704 1004.905 477.212 1005.896 475.959 1007.152 C 474.704 1008.405 473.711 1009.898 473.043 1011.542 C 472.401 1013.132 472.07 1014.83 472.073 1016.544 C 472.071 1018.259 472.4 1019.958 473.044 1021.547 C 473.693 1023.147 474.65 1024.603 475.858 1025.835 L 475.858 1025.835 L 475.858 1025.835 L 475.858 1025.835 L 475.858 1025.835 L 475.858 1025.835 L 510.274 1060.082 Q 509.839 1060.022 510.274 1060.082 Z " fill-rule="evenodd" fill="rgb(244,84,124)"/></g></svg>