<?xml version="1.0" standalone="no"?><!-- Generator: Gravit.io --><svg xmlns="http://www.w3.org/2000/svg" xmlns:xlink="http://www.w3.org/1999/xlink" style="isolation:isolate" viewBox="1006.12 284 250 250" width="250" height="250"><g><path d="M 1006.12 534 L 1006.12 284 C 1006.12 284 1006.12 284 1006.12 284 L 1256.12 284 C 1256.12 284 1256.12 284 1256.12 284 L 1256.12 534 C 1256.12 534 1256.12 534 1256.12 534 L 1006.12 534 C 1006.12 534 1006.12 534 1006.12 534 Z" style="stroke:none;fill:#666D70;stroke-miterlimit:10;"/><path d=" M 1133.355 451.225 L 1133.355 451.225 L 1133.361 451.23 L 1133.361 451.23 L 1133.361 451.23 L 1133.361 451.23 L 1155.198 429.393 L 1165.079 439.273 L 1165.079 439.273 L 1165.207 439.401 L 1165.212 439.396 C 1167.281 441.277 1169.692 442.747 1172.313 443.724 C 1174.905 444.688 1177.656 445.155 1180.422 445.104 C 1183.192 445.054 1185.928 444.481 1188.487 443.417 C 1190.755 442.375 1194.144 440.254 1196.267 437.837 C 1198.42 435.387 1200.304 432.699 1201.865 429.85 C 1203.511 426.76 1204.621 423.449 1205.195 420.008 C 1205.805 416.326 1206.12 412.608 1206.12 408.87 C 1206.111 404.504 1205.69 400.162 1204.867 395.895 C 1204.043 391.628 1202.818 387.438 1201.199 383.377 C 1198.017 375.367 1193.466 367.966 1187.768 361.51 C 1182.033 354.979 1175.224 349.448 1167.658 345.156 C 1159.906 340.771 1151.433 337.756 1142.627 336.294 C 1138.649 335.628 1134.616 335.295 1130.583 335.295 C 1121.888 335.314 1113.267 336.831 1105.09 339.791 C 1097.042 342.695 1089.531 346.932 1082.89 352.334 C 1076.23 357.717 1070.55 364.229 1066.129 371.556 C 1061.596 379.122 1058.506 387.447 1057.063 396.142 C 1056.434 399.935 1056.12 403.764 1056.12 407.594 C 1056.138 416.4 1057.766 425.114 1060.893 433.346 C 1063.982 441.486 1068.423 449.053 1074.01 455.732 C 1079.615 462.429 1086.331 468.127 1093.842 472.585 C 1101.52 477.136 1109.974 480.244 1118.762 481.724 C 1122.739 482.372 1126.754 482.705 1130.768 482.705 C 1146.845 482.705 1162.478 477.34 1175.187 467.498 C 1176.076 466.813 1176.668 465.796 1176.815 464.686 C 1176.945 463.557 1176.649 462.429 1175.946 461.541 C 1175.262 460.653 1174.244 460.061 1173.134 459.913 C 1172.005 459.783 1170.877 460.079 1169.989 460.782 C 1158.759 469.459 1144.958 474.195 1130.768 474.195 C 1127.216 474.195 1123.664 473.899 1120.168 473.325 C 1112.416 472.012 1104.961 469.292 1098.189 465.278 C 1091.492 461.3 1085.535 456.231 1080.54 450.256 C 1075.545 444.317 1071.605 437.583 1068.848 430.331 C 1066.073 423.06 1064.648 415.364 1064.63 407.594 C 1064.63 404.227 1064.908 400.86 1065.462 397.548 C 1066.739 389.908 1069.44 382.582 1073.418 375.959 C 1077.34 369.465 1082.353 363.711 1088.236 358.938 C 1094.156 354.147 1100.817 350.373 1107.976 347.783 C 1115.228 345.156 1122.869 343.805 1130.583 343.805 C 1134.154 343.805 1137.724 344.101 1141.24 344.675 C 1149.047 345.988 1156.576 348.652 1163.458 352.574 C 1170.211 356.385 1176.26 361.306 1181.385 367.134 C 1186.436 372.869 1190.469 379.418 1193.299 386.522 C 1196.13 393.645 1197.591 401.23 1197.61 408.87 C 1197.61 412.145 1197.332 415.401 1196.796 418.62 C 1196.389 421.118 1195.575 423.56 1194.391 425.798 C 1193.19 427.971 1191.88 430.111 1190.173 431.904 C 1189.13 433 1187.005 434.781 1185.166 435.447 C 1183.611 436.094 1181.947 436.442 1180.261 436.473 C 1178.579 436.504 1176.904 436.219 1175.325 435.634 C 1173.739 435.042 1172.281 434.152 1171.029 433.015 L 1161.302 423.288 L 1170.809 413.781 L 1170.809 413.781 C 1172.827 411.736 1174.421 409.312 1175.501 406.651 C 1176.562 404.029 1177.106 401.231 1177.105 398.405 C 1177.106 395.579 1176.562 392.778 1175.502 390.158 C 1174.4 387.444 1172.764 384.978 1170.691 382.908 C 1168.62 380.835 1166.154 379.199 1163.439 378.095 C 1160.819 377.036 1158.019 376.491 1155.192 376.492 C 1152.367 376.492 1149.568 377.036 1146.947 378.097 C 1144.286 379.177 1141.863 380.772 1139.816 382.789 L 1139.816 382.788 L 1139.703 382.901 L 1139.703 382.901 L 1136.824 385.78 L 1136.831 385.787 L 1136.831 385.787 L 1136.831 385.787 L 1136.831 385.787 L 1136.831 385.787 L 1136.831 385.787 L 1136.831 385.787 L 1136.831 385.787 C 1136.04 386.555 1135.594 387.578 1135.594 388.788 L 1135.594 388.788 C 1135.594 391.17 1137.528 393.104 1139.91 393.104 C 1141.081 393.104 1142.144 392.637 1142.922 391.878 L 1142.928 391.884 L 1145.803 389.01 L 1145.803 389.01 C 1145.804 389.008 1145.805 389.007 1145.806 389.006 C 1145.81 389.002 1145.814 388.999 1145.818 388.995 C 1147.067 387.747 1148.555 386.762 1150.191 386.097 C 1151.78 385.455 1153.478 385.124 1155.194 385.125 C 1156.908 385.125 1158.606 385.453 1160.197 386.097 C 1161.839 386.764 1163.333 387.756 1164.587 389.012 C 1165.842 390.265 1166.833 391.759 1167.502 393.402 C 1168.144 394.992 1168.474 396.691 1168.473 398.404 C 1168.474 400.119 1168.144 401.819 1167.501 403.407 C 1166.834 405.05 1165.843 406.542 1164.588 407.795 L 1164.588 407.795 L 1155.198 417.184 L 1121.012 382.998 C 1120.998 382.984 1120.985 382.97 1120.971 382.957 C 1120.934 382.92 1120.897 382.883 1120.86 382.846 L 1120.724 382.71 L 1120.722 382.711 C 1118.703 380.753 1116.324 379.202 1113.717 378.142 C 1111.097 377.082 1108.297 376.538 1105.47 376.539 C 1102.644 376.538 1099.846 377.082 1097.226 378.142 C 1094.511 379.245 1092.045 380.881 1089.974 382.954 C 1087.901 385.025 1086.265 387.491 1085.163 390.205 C 1084.103 392.825 1083.558 395.624 1083.559 398.45 C 1083.558 401.276 1084.103 404.076 1085.163 406.696 C 1086.222 409.304 1087.773 411.683 1089.733 413.701 L 1089.731 413.703 L 1089.853 413.824 C 1089.894 413.866 1089.936 413.908 1089.978 413.95 L 1089.979 413.949 L 1127.159 450.959 L 1127.162 450.956 C 1127.953 451.842 1129.103 452.4 1130.383 452.4 C 1131.508 452.4 1132.318 452.122 1133.355 451.225 Z  M 1130.394 441.988 L 1149.094 423.288 L 1114.773 388.968 C 1113.539 387.755 1112.078 386.795 1110.475 386.143 C 1108.884 385.5 1107.187 385.17 1105.472 385.171 C 1103.756 385.17 1102.058 385.501 1100.469 386.143 C 1098.824 386.811 1097.332 387.802 1096.078 389.058 C 1094.823 390.311 1093.831 391.804 1093.163 393.449 C 1092.521 395.038 1092.19 396.736 1092.193 398.45 C 1092.191 400.166 1092.52 401.864 1093.164 403.453 C 1093.813 405.053 1094.77 406.509 1095.978 407.741 L 1095.978 407.741 L 1095.978 407.741 L 1095.978 407.741 L 1095.978 407.741 L 1095.978 407.741 L 1130.394 441.988 Q 1129.959 441.928 1130.394 441.988 Z " fill-rule="evenodd" fill="rgb(255,255,255)"/></g></svg>