<?xml version="1.0" standalone="no"?><!-- Generator: Gravit.io --><svg xmlns="http://www.w3.org/2000/svg" xmlns:xlink="http://www.w3.org/1999/xlink" style="isolation:isolate" viewBox="1006.12 593.047 250 250" width="250" height="250"><g><path d="M 1006.12 843.047 L 1006.12 593.047 C 1006.12 593.047 1006.12 593.047 1006.12 593.047 L 1256.12 593.047 C 1256.12 593.047 1256.12 593.047 1256.12 593.047 L 1256.12 843.047 C 1256.12 843.047 1256.12 843.047 1256.12 843.047 L 1006.12 843.047 C 1006.12 843.047 1006.12 843.047 1006.12 843.047 Z" style="stroke:none;fill:#6FC44E;stroke-miterlimit:10;"/><path d=" M 1133.355 760.272 L 1133.355 760.272 L 1133.361 760.277 L 1133.361 760.277 L 1133.361 760.277 L 1133.361 760.277 L 1155.198 738.44 L 1165.079 748.32 L 1165.079 748.32 L 1165.207 748.448 L 1165.212 748.443 C 1167.281 750.324 1169.692 751.794 1172.313 752.771 C 1174.905 753.735 1177.656 754.202 1180.422 754.151 C 1183.192 754.101 1185.928 753.528 1188.487 752.464 C 1190.755 751.422 1194.144 749.301 1196.267 746.884 C 1198.42 744.434 1200.304 741.746 1201.865 738.897 C 1203.511 735.807 1204.621 732.496 1205.195 729.055 C 1205.805 725.373 1206.12 721.654 1206.12 717.917 C 1206.101 709.185 1204.436 700.546 1201.199 692.424 C 1198.017 684.413 1193.466 677.013 1187.768 670.557 C 1182.033 664.026 1175.224 658.495 1167.658 654.203 C 1159.906 649.818 1151.433 646.803 1142.627 645.341 C 1138.649 644.675 1134.616 644.342 1130.583 644.342 C 1121.888 644.36 1113.267 645.877 1105.09 648.838 C 1097.042 651.742 1089.531 655.979 1082.89 661.381 C 1076.23 666.764 1070.55 673.276 1066.129 680.602 C 1061.596 688.169 1058.506 696.494 1057.063 705.189 C 1056.434 708.982 1056.12 712.811 1056.12 716.641 C 1056.138 725.447 1057.766 734.161 1060.893 742.393 C 1063.982 750.533 1068.423 758.1 1074.01 764.779 C 1079.615 771.476 1086.331 777.174 1093.842 781.632 C 1101.52 786.183 1109.974 789.291 1118.762 790.771 C 1122.739 791.419 1126.754 791.752 1130.768 791.752 C 1146.845 791.752 1162.478 786.387 1175.187 776.545 C 1176.076 775.86 1176.668 774.843 1176.815 773.733 C 1176.945 772.604 1176.649 771.476 1175.946 770.588 C 1175.262 769.7 1174.244 769.108 1173.134 768.96 C 1172.005 768.83 1170.877 769.126 1169.989 769.829 C 1158.759 778.506 1144.958 783.242 1130.768 783.242 C 1127.216 783.242 1123.664 782.946 1120.168 782.372 C 1112.416 781.059 1104.961 778.339 1098.189 774.325 C 1091.492 770.347 1085.535 765.278 1080.54 759.302 C 1075.545 753.364 1071.605 746.63 1068.848 739.378 C 1066.073 732.107 1064.648 724.411 1064.63 716.641 C 1064.63 713.274 1064.908 709.907 1065.462 706.595 C 1066.739 698.955 1069.44 691.629 1073.418 685.006 C 1077.34 678.512 1082.353 672.758 1088.236 667.985 C 1094.156 663.194 1100.817 659.42 1107.976 656.83 C 1115.228 654.203 1122.869 652.852 1130.583 652.852 C 1134.154 652.852 1137.724 653.148 1141.24 653.722 C 1149.047 655.035 1156.576 657.699 1163.458 661.621 C 1170.211 665.432 1176.26 670.353 1181.385 676.181 C 1186.436 681.916 1190.469 688.465 1193.299 695.569 C 1196.13 702.692 1197.591 710.277 1197.61 717.917 C 1197.61 721.192 1197.332 724.448 1196.796 727.667 C 1196.389 730.165 1195.575 732.607 1194.391 734.845 C 1193.19 737.018 1191.88 739.158 1190.173 740.951 C 1189.13 742.047 1187.005 743.828 1185.166 744.494 C 1183.611 745.141 1181.947 745.489 1180.261 745.52 C 1178.579 745.551 1176.904 745.266 1175.325 744.681 C 1173.739 744.089 1172.281 743.199 1171.029 742.062 L 1161.302 732.335 L 1170.809 722.828 L 1170.809 722.828 C 1172.827 720.783 1174.421 718.359 1175.501 715.698 C 1176.562 713.076 1177.106 710.278 1177.105 707.452 C 1177.106 704.626 1176.562 701.825 1175.502 699.205 C 1174.4 696.491 1172.764 694.025 1170.691 691.955 C 1168.62 689.882 1166.154 688.246 1163.439 687.142 C 1160.819 686.083 1158.019 685.538 1155.192 685.539 C 1152.367 685.539 1149.568 686.083 1146.947 687.143 C 1144.286 688.224 1141.863 689.819 1139.816 691.836 L 1139.816 691.835 L 1139.703 691.948 L 1139.703 691.948 L 1136.824 694.827 L 1136.831 694.834 L 1136.831 694.834 L 1136.831 694.834 L 1136.831 694.834 L 1136.831 694.834 L 1136.831 694.834 L 1136.831 694.834 L 1136.831 694.834 C 1136.04 695.602 1135.594 696.625 1135.594 697.835 L 1135.594 697.835 C 1135.594 700.217 1137.528 702.151 1139.91 702.151 C 1141.081 702.151 1142.144 701.684 1142.922 700.925 L 1142.928 700.931 L 1145.803 698.057 L 1145.803 698.057 C 1145.804 698.055 1145.805 698.054 1145.806 698.053 C 1145.81 698.049 1145.814 698.046 1145.818 698.042 C 1147.067 696.794 1148.555 695.809 1150.191 695.144 C 1151.78 694.501 1153.478 694.171 1155.194 694.172 C 1156.908 694.172 1158.606 694.5 1160.197 695.144 C 1161.839 695.811 1163.333 696.803 1164.587 698.059 C 1165.842 699.312 1166.833 700.806 1167.502 702.449 C 1168.144 704.039 1168.474 705.738 1168.473 707.451 C 1168.474 709.166 1168.144 710.865 1167.501 712.454 C 1166.834 714.097 1165.843 715.589 1164.588 716.841 L 1164.588 716.841 L 1155.198 726.231 L 1121.012 692.045 C 1120.998 692.031 1120.985 692.017 1120.971 692.004 C 1120.934 691.967 1120.897 691.93 1120.86 691.893 L 1120.724 691.757 L 1120.722 691.758 C 1118.703 689.8 1116.324 688.248 1113.717 687.189 C 1111.097 686.129 1108.297 685.585 1105.47 685.586 C 1102.644 685.585 1099.846 686.129 1097.226 687.189 C 1094.511 688.292 1092.045 689.928 1089.974 692.001 C 1087.901 694.072 1086.265 696.538 1085.163 699.252 C 1084.103 701.872 1083.558 704.671 1083.559 707.497 C 1083.558 710.323 1084.103 713.123 1085.163 715.743 C 1086.222 718.351 1087.773 720.73 1089.733 722.748 L 1089.731 722.75 L 1089.853 722.871 C 1089.894 722.913 1089.936 722.955 1089.978 722.997 L 1089.979 722.996 L 1127.159 760.006 L 1127.162 760.003 C 1127.953 760.888 1129.103 761.447 1130.383 761.447 C 1131.508 761.447 1132.318 761.169 1133.355 760.272 Z  M 1130.394 751.035 L 1149.094 732.335 L 1114.773 698.015 C 1113.539 696.802 1112.078 695.842 1110.475 695.19 C 1108.884 694.547 1107.187 694.217 1105.472 694.218 C 1103.756 694.217 1102.058 694.548 1100.469 695.19 C 1098.824 695.858 1097.332 696.849 1096.078 698.105 C 1094.823 699.358 1093.831 700.851 1093.163 702.495 C 1092.521 704.085 1092.19 705.783 1092.193 707.497 C 1092.191 709.212 1092.52 710.911 1093.164 712.5 C 1093.813 714.1 1094.77 715.556 1095.978 716.788 L 1095.978 716.788 L 1095.978 716.788 L 1095.978 716.788 L 1095.978 716.788 L 1095.978 716.788 L 1130.394 751.035 Q 1129.959 750.975 1130.394 751.035 Z " fill-rule="evenodd" fill="rgb(255,255,255)"/></g></svg>