<?xml version="1.0" standalone="no"?><!-- Generator: Gravit.io --><svg xmlns="http://www.w3.org/2000/svg" xmlns:xlink="http://www.w3.org/1999/xlink" style="isolation:isolate" viewBox="1006.12 902.094 250 250" width="250" height="250"><g><path d="M 1006.12 1152.094 L 1006.12 902.094 C 1006.12 902.094 1006.12 902.094 1006.12 902.094 L 1256.12 902.094 C 1256.12 902.094 1256.12 902.094 1256.12 902.094 L 1256.12 1152.094 C 1256.12 1152.094 1256.12 1152.094 1256.12 1152.094 L 1006.12 1152.094 C 1006.12 1152.094 1006.12 1152.094 1006.12 1152.094 Z" style="stroke:none;fill:#F4547C;stroke-miterlimit:10;"/><path d=" M 1133.355 1069.319 L 1133.355 1069.319 L 1133.361 1069.324 L 1133.361 1069.324 L 1133.361 1069.324 L 1133.361 1069.324 L 1155.198 1047.486 L 1165.079 1057.367 L 1165.079 1057.367 L 1165.207 1057.495 L 1165.212 1057.49 C 1167.281 1059.371 1169.692 1060.841 1172.313 1061.818 C 1174.905 1062.781 1177.656 1063.249 1180.422 1063.198 C 1183.192 1063.148 1185.928 1062.575 1188.487 1061.511 C 1190.755 1060.469 1194.144 1058.348 1196.267 1055.931 C 1198.42 1053.481 1200.304 1050.793 1201.865 1047.944 C 1203.511 1044.854 1204.621 1041.543 1205.195 1038.102 C 1205.805 1034.42 1206.12 1030.701 1206.12 1026.964 C 1206.101 1018.232 1204.436 1009.593 1201.199 1001.471 C 1198.017 993.46 1193.466 986.06 1187.768 979.604 C 1182.033 973.073 1175.224 967.542 1167.658 963.25 C 1159.906 958.865 1151.433 955.849 1142.627 954.388 C 1138.649 953.722 1134.616 953.389 1130.583 953.389 C 1121.888 953.407 1113.267 954.924 1105.09 957.884 C 1097.042 960.789 1089.531 965.026 1082.89 970.428 C 1076.23 975.811 1070.55 982.323 1066.129 989.649 C 1061.596 997.216 1058.506 1005.541 1057.063 1014.236 C 1056.434 1018.029 1056.12 1021.858 1056.12 1025.688 C 1056.138 1034.494 1057.766 1043.208 1060.893 1051.44 C 1063.982 1059.58 1068.423 1067.147 1074.01 1073.825 C 1079.615 1080.523 1086.331 1086.221 1093.842 1090.679 C 1101.52 1095.23 1109.974 1098.338 1118.762 1099.818 C 1122.739 1100.466 1126.754 1100.799 1130.768 1100.799 C 1146.845 1100.799 1162.478 1095.434 1175.187 1085.592 C 1176.076 1084.907 1176.668 1083.89 1176.815 1082.78 C 1176.945 1081.651 1176.649 1080.523 1175.946 1079.635 C 1175.262 1078.747 1174.244 1078.155 1173.134 1078.007 C 1172.005 1077.877 1170.877 1078.173 1169.989 1078.876 C 1158.759 1087.553 1144.958 1092.289 1130.768 1092.289 C 1127.216 1092.289 1123.664 1091.993 1120.168 1091.419 C 1112.416 1090.106 1104.961 1087.386 1098.189 1083.372 C 1091.492 1079.394 1085.535 1074.325 1080.54 1068.349 C 1075.545 1062.411 1071.605 1055.677 1068.848 1048.425 C 1066.073 1041.154 1064.648 1033.458 1064.63 1025.688 C 1064.63 1022.321 1064.908 1018.954 1065.462 1015.642 C 1066.739 1008.002 1069.44 1000.676 1073.418 994.052 C 1077.34 987.559 1082.353 981.805 1088.236 977.032 C 1094.156 972.241 1100.817 968.467 1107.976 965.877 C 1115.228 963.25 1122.869 961.899 1130.583 961.899 C 1134.154 961.899 1137.724 962.195 1141.24 962.769 C 1149.047 964.082 1156.576 966.746 1163.458 970.668 C 1170.211 974.479 1176.26 979.4 1181.385 985.228 C 1186.436 990.963 1190.469 997.512 1193.299 1004.616 C 1196.13 1011.739 1197.591 1019.324 1197.61 1026.964 C 1197.61 1030.239 1197.332 1033.495 1196.796 1036.714 C 1196.389 1039.212 1195.575 1041.654 1194.391 1043.892 C 1193.19 1046.065 1191.88 1048.204 1190.173 1049.998 C 1189.13 1051.094 1187.005 1052.875 1185.166 1053.541 C 1183.611 1054.188 1181.947 1054.536 1180.261 1054.566 C 1178.579 1054.598 1176.904 1054.313 1175.325 1053.728 C 1173.739 1053.136 1172.281 1052.246 1171.029 1051.109 L 1161.302 1041.382 L 1170.809 1031.875 L 1170.809 1031.875 C 1172.827 1029.83 1174.421 1027.406 1175.501 1024.744 C 1176.562 1022.123 1177.106 1019.325 1177.105 1016.499 C 1177.106 1013.673 1176.562 1010.872 1175.502 1008.252 C 1174.4 1005.538 1172.764 1003.072 1170.691 1001.002 C 1168.62 998.929 1166.154 997.293 1163.439 996.189 C 1160.819 995.13 1158.019 994.585 1155.192 994.586 C 1152.367 994.586 1149.568 995.13 1146.947 996.19 C 1144.286 997.271 1141.863 998.866 1139.816 1000.883 L 1139.816 1000.882 L 1139.703 1000.995 L 1139.703 1000.995 L 1136.824 1003.874 L 1136.831 1003.881 L 1136.831 1003.881 L 1136.831 1003.881 L 1136.831 1003.881 L 1136.831 1003.881 L 1136.831 1003.881 L 1136.831 1003.881 L 1136.831 1003.881 C 1136.04 1004.649 1135.594 1005.672 1135.594 1006.882 L 1135.594 1006.882 C 1135.594 1009.264 1137.528 1011.198 1139.91 1011.198 C 1141.081 1011.198 1142.144 1010.731 1142.922 1009.972 L 1142.928 1009.978 L 1145.803 1007.103 L 1145.803 1007.103 C 1145.804 1007.102 1145.805 1007.101 1145.806 1007.1 C 1145.81 1007.096 1145.814 1007.092 1145.818 1007.089 C 1147.067 1005.841 1148.555 1004.856 1150.191 1004.191 C 1151.78 1003.548 1153.478 1003.218 1155.194 1003.219 C 1156.908 1003.219 1158.606 1003.547 1160.197 1004.191 C 1161.839 1004.858 1163.333 1005.85 1164.587 1007.106 C 1165.842 1008.358 1166.833 1009.853 1167.502 1011.496 C 1168.144 1013.086 1168.474 1014.785 1168.473 1016.498 C 1168.474 1018.213 1168.144 1019.912 1167.501 1021.501 C 1166.834 1023.144 1165.843 1024.636 1164.588 1025.888 L 1164.588 1025.888 L 1155.198 1035.278 L 1121.012 1001.092 C 1120.998 1001.078 1120.985 1001.064 1120.971 1001.051 C 1120.934 1001.014 1120.897 1000.977 1120.86 1000.94 L 1120.724 1000.804 L 1120.722 1000.805 C 1118.703 998.847 1116.324 997.295 1113.717 996.236 C 1111.097 995.176 1108.297 994.631 1105.47 994.633 C 1102.644 994.631 1099.846 995.176 1097.226 996.236 C 1094.511 997.339 1092.045 998.975 1089.974 1001.048 C 1087.901 1003.119 1086.265 1005.585 1085.163 1008.299 C 1084.103 1010.919 1083.558 1013.718 1083.559 1016.544 C 1083.558 1019.37 1084.103 1022.17 1085.163 1024.79 C 1086.222 1027.398 1087.773 1029.777 1089.733 1031.795 L 1089.731 1031.797 L 1089.853 1031.918 C 1089.894 1031.96 1089.936 1032.002 1089.978 1032.044 L 1089.979 1032.043 L 1127.159 1069.052 L 1127.162 1069.05 C 1127.953 1069.935 1129.103 1070.493 1130.383 1070.493 C 1131.508 1070.493 1132.318 1070.216 1133.355 1069.319 Z  M 1130.394 1060.082 L 1149.094 1041.382 L 1114.773 1007.062 C 1113.539 1005.848 1112.078 1004.889 1110.475 1004.237 C 1108.884 1003.594 1107.187 1003.264 1105.472 1003.265 C 1103.756 1003.264 1102.058 1003.595 1100.469 1004.237 C 1098.824 1004.905 1097.332 1005.896 1096.078 1007.152 C 1094.823 1008.405 1093.831 1009.898 1093.163 1011.542 C 1092.521 1013.132 1092.19 1014.83 1092.193 1016.544 C 1092.191 1018.259 1092.52 1019.958 1093.164 1021.547 C 1093.813 1023.147 1094.77 1024.603 1095.978 1025.835 L 1095.978 1025.835 L 1095.978 1025.835 L 1095.978 1025.835 L 1095.978 1025.835 L 1095.978 1025.835 L 1130.394 1060.082 Q 1129.959 1060.022 1130.394 1060.082 Z " fill-rule="evenodd" fill="rgb(255,255,255)"/></g></svg>