<?xml version="1.0" encoding="utf-8"?>
<!-- Generator: Adobe Illustrator 22.0.1, SVG Export Plug-In . SVG Version: 6.00 Build 0)  -->
<svg version="1.1" id="Layer_1" xmlns="http://www.w3.org/2000/svg" xmlns:xlink="http://www.w3.org/1999/xlink" x="0px" y="0px"
	 viewBox="0 0 80 80" style="enable-background:new 0 0 80 80;" xml:space="preserve">
<style type="text/css">
	.st0{fill-rule:evenodd;clip-rule:evenodd;fill:#6FC44E;}
</style>
<path class="st0" d="M39.6,57.6l10-10L31.3,29.3c-0.7-0.6-1.4-1.2-2.3-1.5c-0.8-0.3-1.8-0.5-2.7-0.5c-0.9,0-1.8,0.2-2.7,0.5
	c-0.9,0.4-1.7,0.9-2.3,1.6c-0.7,0.7-1.2,1.5-1.6,2.3c-0.3,0.8-0.5,1.8-0.5,2.7c0,0.9,0.2,1.8,0.5,2.7c0.3,0.9,0.9,1.6,1.5,2.3
	L39.6,57.6C39.5,57.6,39.5,57.6,39.6,57.6z M41.2,62.5L41.2,62.5L41.2,62.5l11.6-11.6l5.3,5.3l0.1,0.1l0,0c1.1,1,2.4,1.8,3.8,2.3
	c1.4,0.5,2.8,0.8,4.3,0.7c1.5,0,2.9-0.3,4.3-0.9c1.1-0.4,2.1-1,2.9-1.8c0.2-0.1,0.3-0.2,0.4-0.3c0.1-0.1,0.1-0.1,0.2-0.2
	c0.1-0.1,0.1-0.1,0.2-0.2l0,0l0,0c0,0,0.1-0.1,0.1-0.1c0.1-0.1,0.2-0.2,0.3-0.3c1.1-1.3,2.2-2.7,3-4.3c0.9-1.6,1.5-3.4,1.8-5.2
	c0.3-2,0.5-3.9,0.5-5.9c0-4.7-0.9-9.3-2.6-13.6c-1.7-4.3-4.1-8.2-7.2-11.7c-3.1-3.5-6.7-6.4-10.7-8.7C55.4,3.6,50.8,2,46.1,1.2
	c-2.1-0.4-4.3-0.5-6.4-0.5c-4.6,0-9.2,0.8-13.6,2.4c-4.3,1.5-8.3,3.8-11.8,6.7c-3.6,2.9-6.6,6.3-8.9,10.3c-2.4,4-4.1,8.5-4.8,13.1
	c-0.3,2-0.5,4.1-0.5,6.1c0,4.7,0.9,9.3,2.5,13.7c1.6,4.3,4,8.4,7,11.9c3,3.6,6.6,6.6,10.6,9c4.1,2.4,8.6,4.1,13.3,4.9
	c2.1,0.3,4.3,0.5,6.4,0.5c8.6,0,16.9-2.9,23.7-8.1c0.5-0.4,0.8-0.9,0.9-1.5c0.1-0.6-0.1-1.2-0.5-1.7c-0.4-0.5-0.9-0.8-1.5-0.9
	c-0.6-0.1-1.2,0.1-1.7,0.5c-6,4.6-13.3,7.2-20.9,7.2c-1.9,0-3.8-0.2-5.7-0.5C30,73.6,26,72.2,22.4,70c-3.6-2.1-6.7-4.8-9.4-8
	c-2.7-3.2-4.8-6.8-6.2-10.6c-1.5-3.9-2.2-8-2.2-12.1c0-1.8,0.1-3.6,0.4-5.4c0.7-4.1,2.1-8,4.2-11.5c2.1-3.5,4.8-6.5,7.9-9.1
	c3.2-2.6,6.7-4.6,10.5-5.9c3.9-1.4,7.9-2.1,12.1-2.1c1.9,0,3.8,0.2,5.7,0.5c4.2,0.7,8.2,2.1,11.9,4.2c3.6,2,6.8,4.7,9.6,7.8
	c2.7,3.1,4.8,6.6,6.4,10.3c1.5,3.8,2.3,7.8,2.3,11.9c0,1.7-0.1,3.5-0.4,5.2c-0.2,1.3-0.7,2.6-1.3,3.8c-0.6,1.2-1.4,2.2-2.2,3.3
	c0,0,0,0-0.1,0c-0.1,0.1-0.2,0.2-0.3,0.3c-0.7,0.7-1.4,1.2-2.3,1.5c-0.8,0.3-1.7,0.5-2.6,0.5c-0.9,0-1.8-0.1-2.6-0.4
	c-0.8-0.3-1.6-0.8-2.3-1.4l-5.2-5.2l5.1-5.1l0,0c1.1-1.1,1.9-2.4,2.5-3.8c0.6-1.4,0.9-2.9,0.9-4.4c0-1.5-0.3-3-0.9-4.4
	c-0.6-1.4-1.5-2.8-2.6-3.9c-1.1-1.1-2.4-2-3.9-2.6c-1.4-0.6-2.9-0.9-4.4-0.9c-1.5,0-3,0.3-4.4,0.9c-1.4,0.6-2.7,1.4-3.8,2.5l0,0
	l-0.1,0.1L43,27.6l0,0c-0.4,0.4-0.7,1-0.7,1.6c0,1.3,1,2.3,2.3,2.3c0.6,0,1.2-0.2,1.6-0.7l0,0l1.5-1.5c0,0,0,0,0,0c0,0,0,0,0,0
	c0.7-0.7,1.5-1.2,2.3-1.5c0.8-0.3,1.8-0.5,2.7-0.5c0.9,0,1.8,0.2,2.7,0.5c0.9,0.4,1.7,0.9,2.3,1.6c0.7,0.7,1.2,1.5,1.6,2.3
	c0.3,0.8,0.5,1.8,0.5,2.7c0,0.9-0.2,1.8-0.5,2.7c-0.4,0.9-0.9,1.7-1.6,2.3l-5,5L34.6,26.1c0,0,0,0,0,0c0,0,0,0-0.1-0.1L34.5,26l0,0
	c-1.1-1-2.3-1.9-3.7-2.4c-1.4-0.6-2.9-0.9-4.4-0.9c-1.5,0-3,0.3-4.4,0.9c-1.4,0.6-2.8,1.5-3.9,2.6c-1.1,1.1-2,2.4-2.6,3.9
	c-0.6,1.4-0.9,2.9-0.9,4.4c0,1.5,0.3,3,0.9,4.4c0.6,1.4,1.4,2.7,2.4,3.7l0,0l0.1,0.1c0,0,0,0,0.1,0.1l0,0l19.8,19.7l0,0
	c0.4,0.5,1,0.8,1.7,0.8C40.2,63.1,40.6,63,41.2,62.5z"/>
</svg>
